<svg width="1317" height="2045" viewBox="0 0 1317 2045" fill="none" xmlns="http://www.w3.org/2000/svg">
<path d="M4.00007 640.478C1.88715 625.435 13.5669 612 28.757 612H1288.27C1303.27 612 1314.9 625.13 1313.08 640.027L1144.43 2022.78C1142.9 2035.32 1132.25 2044.75 1119.62 2044.75H222.984C210.52 2044.75 199.961 2035.57 198.227 2023.23L4.00007 640.478Z" fill="#05345C"/>
<rect y="307" width="1309" height="219" rx="75" fill="#05345C"/>
<path d="M1004 400C1004 424.739 1001.43 440.502 998.305 450.15C996.806 454.781 995.35 457.462 994.399 458.89C993.512 460.222 992.949 460.647 992.801 460.757C991.865 461.451 983.102 466.235 947.143 458.665C926.757 454.373 906.105 448.326 882.026 441.274C864.413 436.117 844.965 430.422 822.446 424.484C772.856 411.408 715.472 399.5 654 399.5C592.528 399.5 535.144 411.408 485.554 424.484C463.035 430.422 443.587 436.117 425.974 441.274C401.895 448.326 381.243 454.373 360.857 458.665C324.899 466.235 316.135 461.451 315.199 460.757C315.051 460.647 314.488 460.222 313.601 458.89C312.65 457.462 311.194 454.781 309.695 450.15C306.571 440.502 304 424.739 304 400C304 206.7 460.7 50 654 50C847.3 50 1004 206.7 1004 400Z" stroke="#05345C" stroke-width="100"/>
<path d="M254 840V1717.5" stroke="white" stroke-width="100"/>
<path d="M654 840V1717.5" stroke="white" stroke-width="100"/>
<path d="M1054 840V1717.5" stroke="white" stroke-width="100"/>
</svg>
