<svg width="60" height="79" viewBox="0 0 60 79" fill="none" xmlns="http://www.w3.org/2000/svg">
<path d="M31.5977 44.6787H11.5098L11.4023 33.6143H28.2676C31.2396 33.6143 33.6745 33.2383 35.5723 32.4863C37.4701 31.6986 38.8844 30.5706 39.8154 29.1025C40.7822 27.5986 41.2656 25.7725 41.2656 23.624C41.2656 21.1891 40.8001 19.2197 39.8691 17.7158C38.974 16.2119 37.5596 15.1198 35.626 14.4395C33.7282 13.7591 31.2754 13.4189 28.2676 13.4189H17.0957V79H0.982422V0.796875H28.2676C32.8151 0.796875 36.8792 1.22656 40.46 2.08594C44.0765 2.94531 47.138 4.25228 49.6445 6.00684C52.151 7.76139 54.0667 9.98145 55.3916 12.667C56.7165 15.3167 57.3789 18.4678 57.3789 22.1201C57.3789 25.3428 56.6449 28.3148 55.1768 31.0361C53.7445 33.7575 51.4707 35.9775 48.3555 37.6963C45.276 39.415 41.2477 40.3639 36.2705 40.543L31.5977 44.6787ZM30.8994 79H7.10547L13.3896 66.4316H30.8994C33.7282 66.4316 36.0378 65.984 37.8281 65.0889C39.6185 64.1579 40.9434 62.9046 41.8027 61.3291C42.6621 59.7536 43.0918 57.9453 43.0918 55.9043C43.0918 53.6126 42.6979 51.6253 41.9102 49.9424C41.1582 48.2594 39.9408 46.9704 38.2578 46.0752C36.5749 45.1442 34.3548 44.6787 31.5977 44.6787H16.0752L16.1826 33.6143H35.5186L39.2246 37.9648C43.987 37.8932 47.8184 38.7347 50.7188 40.4893C53.6549 42.208 55.7855 44.446 57.1104 47.2031C58.471 49.9603 59.1514 52.9144 59.1514 56.0654C59.1514 61.0785 58.0592 65.3037 55.875 68.7412C53.6908 72.1429 50.486 74.7031 46.2607 76.4219C42.0713 78.1406 36.9508 79 30.8994 79Z" fill="#8C8C8C"/>
</svg>
