<svg width="401" height="507" viewBox="0 0 401 507" fill="none" xmlns="http://www.w3.org/2000/svg">
<path d="M300.077 103.671L301.414 44.5097C301.469 42.1139 304.171 40.7455 306.134 42.1201L359.932 79.7898C361.895 81.1644 361.534 84.1721 359.301 85.0424L304.165 106.534C302.171 107.311 300.028 105.81 300.077 103.671Z" stroke="#05345C" stroke-width="14"/>
<path d="M285 323.005V491.005H15V121.005H219.761L285 166.802V323.005Z" stroke="#05345C" stroke-width="30"/>
<path d="M222.077 186.676L223.414 127.515C223.469 125.119 226.171 123.751 228.134 125.125L281.932 162.795C283.895 164.17 283.534 167.177 281.301 168.048L226.165 189.539C224.171 190.316 222.028 188.816 222.077 186.676Z" stroke="#05345C" stroke-width="14"/>
<path d="M55.5 254.505H240.5" stroke="#05345C" stroke-width="28"/>
<path d="M55 328.005H240" stroke="#05345C" stroke-width="28"/>
<path d="M55 399.005H166" stroke="#05345C" stroke-width="28"/>
<line x1="40" y1="106" x2="40" y2="46" stroke="#05345C" stroke-width="30"/>
<line x1="25" y1="31" x2="308" y2="31" stroke="#05345C" stroke-width="30"/>
<line x1="294" y1="491" x2="380" y2="491" stroke="#05345C" stroke-width="30"/>
<line x1="365.001" y1="505.825" x2="370.001" y2="77.8248" stroke="#05345C" stroke-width="30"/>
<path d="M303 23L380 83" stroke="#05345C" stroke-width="20"/>
</svg>
