<svg width="2535" height="2323" viewBox="0 0 2535 2323" fill="none" xmlns="http://www.w3.org/2000/svg">
<rect x="712" y="737" width="700" height="164" rx="50" transform="rotate(30 712 737)" fill="#05345C"/>
<rect x="1100" y="1146.62" width="1324" height="164" rx="50" transform="rotate(-60 1100 1146.62)" fill="#05345C"/>
<path d="M383.789 1970.44H454.102C450.439 2004.14 440.796 2034.29 425.171 2060.9C409.546 2087.51 387.451 2108.63 358.887 2124.25C330.322 2139.63 294.678 2147.32 251.953 2147.32C220.703 2147.32 192.261 2141.46 166.626 2129.75C141.235 2118.03 119.385 2101.43 101.074 2079.94C82.7637 2058.21 68.6035 2032.21 58.5938 2001.94C48.8281 1971.42 43.9453 1937.49 43.9453 1900.13V1847.03C43.9453 1809.68 48.8281 1775.86 58.5938 1745.59C68.6035 1715.07 82.8857 1688.95 101.44 1667.22C120.239 1645.49 142.822 1628.77 169.189 1617.05C195.557 1605.33 225.22 1599.47 258.179 1599.47C298.462 1599.47 332.52 1607.04 360.352 1622.18C388.184 1637.31 409.79 1658.31 425.171 1685.17C440.796 1711.78 450.439 1742.66 454.102 1777.82H383.789C380.371 1752.92 374.023 1731.55 364.746 1713.73C355.469 1695.66 342.285 1681.75 325.195 1671.98C308.105 1662.22 285.767 1657.33 258.179 1657.33C234.497 1657.33 213.623 1661.85 195.557 1670.88C177.734 1679.92 162.72 1692.73 150.513 1709.34C138.55 1725.94 129.517 1745.83 123.413 1769.03C117.31 1792.22 114.258 1817.98 114.258 1846.3V1900.13C114.258 1926.25 116.943 1950.79 122.314 1973.74C127.93 1996.69 136.353 2016.83 147.583 2034.17C158.813 2051.5 173.096 2065.17 190.43 2075.18C207.764 2084.95 228.271 2089.83 251.953 2089.83C281.982 2089.83 305.908 2085.07 323.73 2075.55C341.553 2066.03 354.98 2052.35 364.014 2034.53C373.291 2016.71 379.883 1995.35 383.789 1970.44ZM522.217 1946.27V1937.85C522.217 1909.29 526.367 1882.8 534.668 1858.38C542.969 1833.73 554.932 1812.36 570.557 1794.3C586.182 1775.99 605.103 1761.83 627.319 1751.82C649.536 1741.56 674.438 1736.44 702.026 1736.44C729.858 1736.44 754.883 1741.56 777.1 1751.82C799.561 1761.83 818.604 1775.99 834.229 1794.3C850.098 1812.36 862.183 1833.73 870.483 1858.38C878.784 1882.8 882.935 1909.29 882.935 1937.85V1946.27C882.935 1974.84 878.784 2001.33 870.483 2025.74C862.183 2050.16 850.098 2071.52 834.229 2089.83C818.604 2107.9 799.683 2122.06 777.466 2132.31C755.493 2142.32 730.591 2147.32 702.759 2147.32C674.927 2147.32 649.902 2142.32 627.686 2132.31C605.469 2122.06 586.426 2107.9 570.557 2089.83C554.932 2071.52 542.969 2050.16 534.668 2025.74C526.367 2001.33 522.217 1974.84 522.217 1946.27ZM589.966 1937.85V1946.27C589.966 1966.05 592.285 1984.73 596.924 2002.3C601.562 2019.64 608.521 2035.02 617.798 2048.45C627.319 2061.88 639.16 2072.5 653.32 2080.31C667.48 2087.88 683.96 2091.66 702.759 2091.66C721.313 2091.66 737.549 2087.88 751.465 2080.31C765.625 2072.5 777.344 2061.88 786.621 2048.45C795.898 2035.02 802.856 2019.64 807.495 2002.3C812.378 1984.73 814.819 1966.05 814.819 1946.27V1937.85C814.819 1918.32 812.378 1899.89 807.495 1882.55C802.856 1864.98 795.776 1849.47 786.255 1836.04C776.978 1822.37 765.259 1811.63 751.099 1803.82C737.183 1796.01 720.825 1792.1 702.026 1792.1C683.472 1792.1 667.114 1796.01 652.954 1803.82C639.038 1811.63 627.319 1822.37 617.798 1836.04C608.521 1849.47 601.562 1864.98 596.924 1882.55C592.285 1899.89 589.966 1918.32 589.966 1937.85ZM1035.64 1819.93V2292.34H967.529V1743.76H1029.79L1035.64 1819.93ZM1302.61 1938.58V1946.27C1302.61 1975.08 1299.19 2001.82 1292.36 2026.47C1285.52 2050.89 1275.51 2072.13 1262.33 2090.2C1249.39 2108.26 1233.4 2122.3 1214.36 2132.31C1195.31 2142.32 1173.46 2147.32 1148.8 2147.32C1123.66 2147.32 1101.44 2143.17 1082.15 2134.87C1062.87 2126.57 1046.51 2114.49 1033.08 2098.62C1019.65 2082.75 1008.91 2063.71 1000.85 2041.49C993.042 2019.27 987.671 1994.25 984.741 1966.42V1925.4C987.671 1896.1 993.164 1869.86 1001.22 1846.67C1009.28 1823.47 1019.9 1803.7 1033.08 1787.34C1046.51 1770.74 1062.74 1758.16 1081.79 1749.62C1100.83 1740.83 1122.8 1736.44 1147.71 1736.44C1172.61 1736.44 1194.7 1741.32 1213.99 1751.08C1233.28 1760.61 1249.51 1774.28 1262.7 1792.1C1275.88 1809.92 1285.77 1831.28 1292.36 1856.19C1299.19 1880.84 1302.61 1908.31 1302.61 1938.58ZM1234.5 1946.27V1938.58C1234.5 1918.81 1232.42 1900.25 1228.27 1882.92C1224.12 1865.34 1217.65 1849.96 1208.86 1836.78C1200.32 1823.35 1189.33 1812.85 1175.9 1805.28C1162.48 1797.47 1146.48 1793.56 1127.93 1793.56C1110.84 1793.56 1095.95 1796.49 1083.25 1802.35C1070.8 1808.21 1060.18 1816.15 1051.39 1826.16C1042.6 1835.92 1035.4 1847.15 1029.79 1859.85C1024.41 1872.3 1020.39 1885.24 1017.7 1898.67V1993.52C1022.58 2010.61 1029.42 2026.72 1038.21 2041.86C1047 2056.75 1058.72 2068.83 1073.36 2078.11C1088.01 2087.14 1106.45 2091.66 1128.66 2091.66C1146.97 2091.66 1162.72 2087.88 1175.9 2080.31C1189.33 2072.5 1200.32 2061.88 1208.86 2048.45C1217.65 2035.02 1224.12 2019.64 1228.27 2002.3C1232.42 1984.73 1234.5 1966.05 1234.5 1946.27ZM1462.65 1743.76V2140H1394.53V1743.76H1462.65ZM1389.4 1638.66C1389.4 1627.67 1392.7 1618.39 1399.29 1610.83C1406.13 1603.26 1416.14 1599.47 1429.32 1599.47C1442.26 1599.47 1452.15 1603.26 1458.98 1610.83C1466.06 1618.39 1469.6 1627.67 1469.6 1638.66C1469.6 1649.16 1466.06 1658.19 1458.98 1665.76C1452.15 1673.08 1442.26 1676.74 1429.32 1676.74C1416.14 1676.74 1406.13 1673.08 1399.29 1665.76C1392.7 1658.19 1389.4 1649.16 1389.4 1638.66ZM1735.84 2147.32C1708.25 2147.32 1683.23 2142.69 1660.77 2133.41C1638.55 2123.89 1619.38 2110.58 1603.27 2093.49C1587.4 2076.4 1575.2 2056.14 1566.65 2032.7C1558.11 2009.26 1553.83 1983.63 1553.83 1955.8V1940.42C1553.83 1908.19 1558.59 1879.5 1568.12 1854.36C1577.64 1828.96 1590.58 1807.48 1606.93 1789.9C1623.29 1772.32 1641.85 1759.02 1662.6 1749.99C1683.35 1740.95 1704.83 1736.44 1727.05 1736.44C1755.37 1736.44 1779.79 1741.32 1800.29 1751.08C1821.04 1760.85 1838.01 1774.52 1851.2 1792.1C1864.38 1809.43 1874.15 1829.94 1880.49 1853.62C1886.84 1877.06 1890.01 1902.7 1890.01 1930.53V1960.92H1594.12V1905.62H1822.27V1900.5C1821.29 1882.92 1817.63 1865.83 1811.28 1849.23C1805.18 1832.63 1795.41 1818.96 1781.98 1808.21C1768.55 1797.47 1750.24 1792.1 1727.05 1792.1C1711.67 1792.1 1697.51 1795.4 1684.57 1801.99C1671.63 1808.33 1660.52 1817.86 1651.25 1830.55C1641.97 1843.25 1634.77 1858.75 1629.64 1877.06C1624.51 1895.37 1621.95 1916.49 1621.95 1940.42V1955.8C1621.95 1974.59 1624.51 1992.29 1629.64 2008.9C1635.01 2025.25 1642.7 2039.66 1652.71 2052.11C1662.96 2064.56 1675.29 2074.33 1689.7 2081.41C1704.35 2088.49 1720.95 2092.03 1739.5 2092.03C1763.43 2092.03 1783.69 2087.14 1800.29 2077.38C1816.89 2067.61 1831.42 2054.55 1843.87 2038.19L1884.89 2070.79C1876.34 2083.73 1865.48 2096.05 1852.29 2107.77C1839.11 2119.49 1822.88 2129.01 1803.59 2136.34C1784.55 2143.66 1761.96 2147.32 1735.84 2147.32ZM2218.87 2063.1V1577.5H2286.99V2140H2224.73L2218.87 2063.1ZM1952.27 1946.27V1938.58C1952.27 1908.31 1955.93 1880.84 1963.26 1856.19C1970.83 1831.28 1981.45 1809.92 1995.12 1792.1C2009.03 1774.28 2025.51 1760.61 2044.56 1751.08C2063.84 1741.32 2085.33 1736.44 2109.01 1736.44C2133.91 1736.44 2155.64 1740.83 2174.19 1749.62C2192.99 1758.16 2208.86 1770.74 2221.8 1787.34C2234.99 1803.7 2245.36 1823.47 2252.93 1846.67C2260.5 1869.86 2265.75 1896.1 2268.68 1925.4V1959.09C2265.99 1988.14 2260.74 2014.27 2252.93 2037.46C2245.36 2060.65 2234.99 2080.43 2221.8 2096.79C2208.86 2113.14 2192.99 2125.72 2174.19 2134.51C2155.4 2143.05 2133.42 2147.32 2108.28 2147.32C2085.08 2147.32 2063.84 2142.32 2044.56 2132.31C2025.51 2122.3 2009.03 2108.26 1995.12 2090.2C1981.45 2072.13 1970.83 2050.89 1963.26 2026.47C1955.93 2001.82 1952.27 1975.08 1952.27 1946.27ZM2020.39 1938.58V1946.27C2020.39 1966.05 2022.34 1984.6 2026.25 2001.94C2030.4 2019.27 2036.74 2034.53 2045.29 2047.71C2053.83 2060.9 2064.7 2071.27 2077.88 2078.84C2091.06 2086.17 2106.81 2089.83 2125.12 2089.83C2147.58 2089.83 2166.02 2085.07 2180.42 2075.55C2195.07 2066.03 2206.79 2053.45 2215.58 2037.83C2224.37 2022.2 2231.2 2005.23 2236.08 1986.92V1898.67C2233.15 1885.24 2228.88 1872.3 2223.27 1859.85C2217.9 1847.15 2210.82 1835.92 2202.03 1826.16C2193.48 1816.15 2182.86 1808.21 2170.17 1802.35C2157.71 1796.49 2142.94 1793.56 2125.85 1793.56C2107.3 1793.56 2091.31 1797.47 2077.88 1805.28C2064.7 1812.85 2053.83 1823.35 2045.29 1836.78C2036.74 1849.96 2030.4 1865.34 2026.25 1882.92C2022.34 1900.25 2020.39 1918.81 2020.39 1938.58ZM2473.02 1606.8L2468.26 1989.49H2407.1L2401.98 1606.8H2473.02ZM2399.78 2105.94C2399.78 2094.96 2403.08 2085.68 2409.67 2078.11C2416.5 2070.54 2426.51 2066.76 2439.7 2066.76C2452.64 2066.76 2462.52 2070.54 2469.36 2078.11C2476.44 2085.68 2479.98 2094.96 2479.98 2105.94C2479.98 2116.44 2476.44 2125.47 2469.36 2133.04C2462.52 2140.61 2452.64 2144.39 2439.7 2144.39C2426.51 2144.39 2416.5 2140.61 2409.67 2133.04C2403.08 2125.47 2399.78 2116.44 2399.78 2105.94Z" fill="#05345C"/>
</svg>
