<svg width="300" height="352" viewBox="0 0 300 352" fill="none" xmlns="http://www.w3.org/2000/svg">
<rect y="26" width="300" height="300" rx="15" fill="#C4C4C4"/>
<path d="M224.547 246.041V279H78.6484V250.875L147.643 176.9C154.576 169.186 160.045 162.398 164.049 156.539C168.053 150.582 170.934 145.26 172.691 140.572C174.547 135.787 175.475 131.246 175.475 126.949C175.475 120.504 174.4 114.986 172.252 110.396C170.104 105.709 166.93 102.096 162.73 99.5566C158.629 97.0176 153.551 95.748 147.496 95.748C141.051 95.748 135.484 97.3105 130.797 100.436C126.207 103.561 122.691 107.906 120.25 113.473C117.906 119.039 116.734 125.338 116.734 132.369H74.4004C74.4004 119.674 77.4277 108.053 83.4824 97.5059C89.5371 86.8613 98.082 78.4141 109.117 72.1641C120.152 65.8164 133.238 62.6426 148.375 62.6426C163.316 62.6426 175.914 65.084 186.168 69.9668C196.52 74.752 204.332 81.6855 209.605 90.7676C214.977 99.752 217.662 110.494 217.662 122.994C217.662 130.025 216.539 136.91 214.293 143.648C212.047 150.289 208.824 156.93 204.625 163.57C200.523 170.113 195.543 176.754 189.684 183.492C183.824 190.23 177.33 197.213 170.201 204.439L133.141 246.041H224.547Z" fill="white"/>
</svg>
