<svg width="516" height="530" viewBox="0 0 516 530" fill="none" xmlns="http://www.w3.org/2000/svg">
<circle cx="250" cy="280" r="250" fill="#05345C"/>
<path d="M263.568 363.902H218.158C218.321 348.277 219.704 335.501 222.309 325.572C225.076 315.481 229.551 306.285 235.736 297.984C241.921 289.684 250.141 280.243 260.395 269.664C267.882 262.014 274.717 254.853 280.902 248.18C287.25 241.344 292.377 234.02 296.283 226.207C300.189 218.232 302.143 208.71 302.143 197.643C302.143 186.412 300.108 176.728 296.039 168.59C292.133 160.452 286.273 154.186 278.461 149.791C270.811 145.396 261.29 143.199 249.896 143.199C240.456 143.199 231.505 144.908 223.041 148.326C214.577 151.744 207.742 157.034 202.533 164.195C197.325 171.194 194.639 180.39 194.477 191.783H149.311C149.636 173.391 154.193 157.604 162.982 144.42C171.934 131.236 183.979 121.145 199.115 114.146C214.252 107.148 231.179 103.648 249.896 103.648C270.567 103.648 288.145 107.392 302.631 114.879C317.279 122.366 328.428 133.108 336.078 147.105C343.728 160.94 347.553 177.379 347.553 196.422C347.553 211.07 344.542 224.579 338.52 236.949C332.66 249.156 325.092 260.631 315.814 271.373C306.537 282.115 296.69 292.369 286.273 302.135C277.322 310.436 271.299 319.794 268.207 330.211C265.115 340.628 263.568 351.858 263.568 363.902ZM216.205 441.295C216.205 433.971 218.484 427.786 223.041 422.74C227.598 417.695 234.19 415.172 242.816 415.172C251.605 415.172 258.279 417.695 262.836 422.74C267.393 427.786 269.672 433.971 269.672 441.295C269.672 448.294 267.393 454.316 262.836 459.361C258.279 464.407 251.605 466.93 242.816 466.93C234.19 466.93 227.598 464.407 223.041 459.361C218.484 454.316 216.205 448.294 216.205 441.295Z" fill="white"/>
</svg>
