<svg width="460" height="460" viewBox="0 0 460 460" fill="none" xmlns="http://www.w3.org/2000/svg">
<rect width="460" height="460" rx="230" fill="white"/>
<path d="M317.889 171.324H142.667C125.178 171.324 111 184.422 111 200.578V350.746C111 366.903 125.178 380 142.667 380H317.889C335.378 380 349.555 366.903 349.555 350.746V200.578C349.555 184.422 335.378 171.324 317.889 171.324Z" fill="#05345C"/>
<path d="M159.879 189.097V146.777C159.879 121.505 175.388 98.4178 199.902 87.1992L201.066 86.6662C221.074 77.5096 244.629 77.8007 264.365 87.4487C287.101 98.5633 301.323 120.38 301.323 144.143V189.097" stroke="#05345C" stroke-width="58"/>
<path d="M229.222 268.836C252.541 268.836 271.444 253.993 271.444 235.682C271.444 217.372 252.541 202.528 229.222 202.528C205.904 202.528 187 217.372 187 235.682C187 253.993 205.904 268.836 229.222 268.836Z" fill="#FFFEFE"/>
<path d="M229.222 235.682L263.959 319.055H194.485L229.222 235.682Z" fill="#FFFDFD"/>
</svg>
