<svg width="381" height="338" viewBox="0 0 381 338" fill="none" xmlns="http://www.w3.org/2000/svg">
<path d="M380.5 69H79" stroke="#8C8C8C" stroke-width="30"/>
<path d="M380.5 162H79" stroke="#8C8C8C" stroke-width="30"/>
<path d="M380.5 270H79" stroke="#8C8C8C" stroke-width="30"/>
<path d="M40.2852 109H24.8701V47.3936H17.1895V31.9785H40.2852V109Z" fill="#8C8C8C"/>
<path d="M58.6523 148.074C58.6523 151.261 58.0436 154.269 56.8262 157.098C55.6087 159.891 53.9437 162.343 51.8311 164.456C49.7542 166.533 47.3193 168.18 44.5264 169.397C41.7334 170.615 38.7435 171.224 35.5566 171.224H27.8223C26.748 171.224 25.7454 171.421 24.8145 171.814C23.8835 172.208 23.0599 172.763 22.3438 173.479C21.6634 174.16 21.1263 174.965 20.7324 175.896C20.3385 176.827 20.1416 177.83 20.1416 178.904V186.585H56.5576V202H4.72656V178.904C4.72656 175.717 5.33529 172.728 6.55273 169.935C7.77018 167.106 9.41732 164.653 11.4941 162.576C13.6068 160.464 16.0596 158.816 18.8525 157.635C21.6455 156.417 24.6354 155.809 27.8223 155.809H35.5566C36.6309 155.809 37.6335 155.612 38.5645 155.218C39.4954 154.824 40.3011 154.287 40.9814 153.606C41.6976 152.89 42.2526 152.067 42.6465 151.136C43.0404 150.169 43.2373 149.148 43.2373 148.074C43.2373 147 43.0404 145.997 42.6465 145.066C42.2526 144.135 41.6976 143.33 40.9814 142.649C40.3011 141.933 39.4954 141.378 38.5645 140.984C37.6335 140.59 36.6309 140.394 35.5566 140.394H8.05664V124.979H35.5566C38.7435 124.979 41.7334 125.587 44.5264 126.805C47.3193 128.022 49.7542 129.687 51.8311 131.8C53.9437 133.877 55.6087 136.312 56.8262 139.104C58.0436 141.897 58.6523 144.887 58.6523 148.074Z" fill="#8C8C8C"/>
<path d="M59.2969 286.904C59.2969 290.091 58.6882 293.081 57.4707 295.874C56.2533 298.667 54.5882 301.12 52.4756 303.232C50.3988 305.309 47.9639 306.956 45.1709 308.174C42.3779 309.391 39.388 310 36.2012 310H5.37109V294.585H36.2012C37.2754 294.585 38.278 294.388 39.209 293.994C40.14 293.6 40.9456 293.063 41.626 292.383C42.3421 291.667 42.8971 290.843 43.291 289.912C43.6849 288.981 43.8818 287.979 43.8818 286.904C43.8818 285.83 43.6849 284.827 43.291 283.896C42.8971 282.965 42.3421 282.16 41.626 281.479C40.9456 280.763 40.14 280.208 39.209 279.814C38.278 279.421 37.2754 279.224 36.2012 279.224H15.2002V263.809H36.2012C37.2754 263.809 38.278 263.612 39.209 263.218C40.14 262.824 40.9456 262.287 41.626 261.606C42.3421 260.89 42.8971 260.067 43.291 259.136C43.6849 258.169 43.8818 257.148 43.8818 256.074C43.8818 255 43.6849 253.997 43.291 253.066C42.8971 252.135 42.3421 251.33 41.626 250.649C40.9456 249.933 40.14 249.378 39.209 248.984C38.278 248.59 37.2754 248.394 36.2012 248.394H5.37109V232.979H36.2012C39.388 232.979 42.3779 233.587 45.1709 234.805C47.9639 236.022 50.3988 237.687 52.4756 239.8C54.5882 241.877 56.2533 244.312 57.4707 247.104C58.6882 249.897 59.2969 252.887 59.2969 256.074C59.2969 258.903 58.7777 261.66 57.7393 264.346C56.7008 266.995 55.2327 269.377 53.335 271.489C55.2327 273.602 56.7008 276.001 57.7393 278.687C58.7777 281.336 59.2969 284.076 59.2969 286.904Z" fill="#8C8C8C"/>
</svg>
