<svg width="372" height="307" viewBox="0 0 372 307" fill="none" xmlns="http://www.w3.org/2000/svg">
<path fill-rule="evenodd" clip-rule="evenodd" d="M28 111.429L0 95.2628L28 79.097L137 16.1658L165 0V32.3316V61.3923C224.796 62.5163 269.321 70.9158 301.507 84.8452C336.51 99.9939 357.438 121.974 366.462 148.224C375.326 174.007 371.901 201.596 363.069 226.821C354.208 252.127 339.494 276.289 323.907 296.25C314.706 308.031 298.296 309.66 286.761 301.584C276.36 294.304 271.068 281.697 273.155 269.175L281.828 217.137C285.851 192.996 270.269 169.932 246.371 164.656L165 146.691V158.194V190.526L137 174.36L28 111.429ZM137 140.509V129.263V75.2629V61.2629V48.4974L56 95.2628L137 142.028V140.509ZM165 118.017L252.407 137.314C290.852 145.802 315.919 182.905 309.447 221.74L300.774 273.778C300.491 275.478 301.113 277.189 302.389 278.309C316.438 260.194 329.148 238.969 336.642 217.567C344.263 195.804 346.086 175.079 339.983 157.327C334.041 140.042 319.787 123.266 290.386 110.542C262.819 98.6117 222.442 90.5226 165 89.3976V118.017Z" fill="white"/>
</svg>
