<svg width="111" height="80" viewBox="0 0 111 80" fill="none" xmlns="http://www.w3.org/2000/svg">
<path d="M50.2305 25.5508C50.2305 29.8477 49.791 34.4863 48.9121 39.4668C48.1309 44.3496 46.8125 49.2324 44.957 54.1152C43.1992 58.9004 40.8555 63.4902 37.9258 67.8848C34.9961 72.2793 31.4805 75.9902 27.3789 79.0176L11.5586 67.8848C14.1953 64.7598 16.1973 61.7812 17.5645 58.9492C18.9316 56.1172 20.0059 53.2852 20.7871 50.4531C17.8574 49.9648 15.123 48.9883 12.584 47.5234C10.0449 46.0586 7.84766 44.252 5.99219 42.1035C4.23438 39.8574 2.81836 37.3184 1.74414 34.4863C0.669922 31.6543 0.132812 28.6758 0.132812 25.5508C0.132812 22.2305 0.767578 19.0566 2.03711 16.0293C3.4043 13.002 5.21094 10.3652 7.45703 8.11914C9.80078 5.77539 12.4375 3.96875 15.3672 2.69922C18.3945 1.33203 21.6172 0.648438 25.0352 0.648438C28.5508 0.648438 31.8223 1.33203 34.8496 2.69922C37.9746 3.96875 40.6602 5.77539 42.9062 8.11914C45.1523 10.3652 46.9102 13.002 48.1797 16.0293C49.5469 19.0566 50.2305 22.2305 50.2305 25.5508ZM110.143 25.5508C110.143 29.8477 109.703 34.4863 108.824 39.4668C108.043 44.3496 106.725 49.2324 104.869 54.1152C103.111 58.9004 100.768 63.4902 97.8379 67.8848C95.0059 72.2793 91.5391 75.9902 87.4375 79.0176L71.4707 67.8848C74.2051 64.7598 76.2559 61.7812 77.623 58.9492C78.9902 56.1172 80.0645 53.2852 80.8457 50.4531C77.916 49.9648 75.1816 48.9883 72.6426 47.5234C70.1035 46.0586 67.9062 44.252 66.0508 42.1035C64.1953 39.8574 62.7305 37.3184 61.6562 34.4863C60.582 31.6543 60.0449 28.6758 60.0449 25.5508C60.0449 22.2305 60.6797 19.0566 61.9492 16.0293C63.3164 13.002 65.123 10.3652 67.3691 8.11914C69.7129 5.77539 72.3496 3.96875 75.2793 2.69922C78.3066 1.33203 81.5293 0.648438 84.9473 0.648438C88.4629 0.648438 91.7344 1.33203 94.7617 2.69922C97.8867 3.96875 100.572 5.77539 102.818 8.11914C105.162 10.3652 106.969 13.002 108.238 16.0293C109.508 19.0566 110.143 22.2305 110.143 25.5508Z" fill="#8C8C8C"/>
</svg>
