<svg width="175" height="173" viewBox="0 0 175 173" fill="none" xmlns="http://www.w3.org/2000/svg">
<path fill-rule="evenodd" clip-rule="evenodd" d="M8 69.5C8 35.5345 35.5345 8 69.5 8C103.466 8 131 35.5345 131 69.5C131 103.466 103.466 131 69.5 131C35.5345 131 8 103.466 8 69.5ZM69.5 3C32.7731 3 3 32.7731 3 69.5C3 106.227 32.7731 136 69.5 136C87.3548 136 103.566 128.963 115.512 117.512L167.732 169.732C168.709 170.709 170.291 170.709 171.268 169.732C172.244 168.756 172.244 167.173 171.268 166.197L118.99 113.919C129.566 102.144 136 86.5733 136 69.5C136 32.7731 106.227 3 69.5 3Z" fill="#D1D5D1"/>
<path d="M115.512 117.512L117.28 115.744L115.549 114.013L113.782 115.707L115.512 117.512ZM171.268 166.197L169.5 167.964L169.5 167.964L171.268 166.197ZM118.99 113.919L117.13 112.249L115.547 114.011L117.222 115.687L118.99 113.919ZM69.5 5.5C34.1538 5.5 5.5 34.1538 5.5 69.5H10.5C10.5 36.9152 36.9152 10.5 69.5 10.5V5.5ZM133.5 69.5C133.5 34.1538 104.846 5.5 69.5 5.5V10.5C102.085 10.5 128.5 36.9152 128.5 69.5H133.5ZM69.5 133.5C104.846 133.5 133.5 104.846 133.5 69.5H128.5C128.5 102.085 102.085 128.5 69.5 128.5V133.5ZM5.5 69.5C5.5 104.846 34.1538 133.5 69.5 133.5V128.5C36.9152 128.5 10.5 102.085 10.5 69.5H5.5ZM5.5 69.5C5.5 34.1538 34.1538 5.5 69.5 5.5V0.5C31.3924 0.5 0.5 31.3924 0.5 69.5H5.5ZM69.5 133.5C34.1538 133.5 5.5 104.846 5.5 69.5H0.5C0.5 107.608 31.3924 138.5 69.5 138.5V133.5ZM113.782 115.707C102.283 126.73 86.6846 133.5 69.5 133.5V138.5C88.025 138.5 104.849 131.196 117.242 119.317L113.782 115.707ZM169.5 167.964L117.28 115.744L113.744 119.28L165.964 171.5L169.5 167.964ZM169.5 167.964H169.5L165.964 171.5C167.917 173.453 171.083 173.453 173.036 171.5L169.5 167.964ZM169.5 167.964V167.964L173.036 171.5C174.988 169.547 174.988 166.382 173.036 164.429L169.5 167.964ZM117.222 115.687L169.5 167.964L173.036 164.429L120.758 112.151L117.222 115.687ZM133.5 69.5C133.5 85.933 127.31 100.914 117.13 112.249L120.85 115.59C131.822 103.373 138.5 87.2135 138.5 69.5H133.5ZM69.5 5.5C104.846 5.5 133.5 34.1538 133.5 69.5H138.5C138.5 31.3924 107.608 0.5 69.5 0.5V5.5Z" fill="#D1D5D1"/>
</svg>
