<svg width="489" height="666" viewBox="0 0 489 666" fill="none" xmlns="http://www.w3.org/2000/svg">
<rect width="489" height="666" fill="white"/>
<path d="M173.5 333C173.5 366.179 142.29 397.5 98 397.5C53.7095 397.5 22.5 366.179 22.5 333C22.5 299.821 53.7095 268.5 98 268.5C142.29 268.5 173.5 299.821 173.5 333Z" fill="white" stroke="#05345C" stroke-width="45"/>
<path d="M466.5 87C466.5 120.179 435.29 151.5 391 151.5C346.709 151.5 315.5 120.179 315.5 87C315.5 53.821 346.709 22.5 391 22.5C435.29 22.5 466.5 53.821 466.5 87Z" fill="white" stroke="#05345C" stroke-width="45"/>
<path d="M466.5 579C466.5 612.179 435.29 643.5 391 643.5C346.709 643.5 315.5 612.179 315.5 579C315.5 545.821 346.709 514.5 391 514.5C435.29 514.5 466.5 545.821 466.5 579Z" fill="white" stroke="#05345C" stroke-width="45"/>
<path d="M158 288L324 122" stroke="#05345C" stroke-width="45"/>
<path d="M158 390L324 548" stroke="#05345C" stroke-width="45"/>
</svg>
