<svg width="117" height="168" viewBox="0 0 117 168" fill="none" xmlns="http://www.w3.org/2000/svg">
<path d="M72.4082 32.3594H94.3076V102.818C94.3076 111.021 92.5498 117.931 89.0342 123.546C85.5674 129.161 80.7578 133.385 74.6055 136.217C68.502 139.049 61.4707 140.465 53.5117 140.465C45.5527 140.465 38.4727 139.049 32.2715 136.217C26.1191 133.385 21.2852 129.161 17.7695 123.546C14.3027 117.931 12.5693 111.021 12.5693 102.818V32.3594H34.542V102.818C34.542 107.604 35.2988 111.51 36.8125 114.537C38.3262 117.564 40.499 119.786 43.3311 121.202C46.2119 122.618 49.6055 123.326 53.5117 123.326C57.5156 123.326 60.9092 122.618 63.6924 121.202C66.5244 119.786 68.6729 117.564 70.1377 114.537C71.6514 111.51 72.4082 107.604 72.4082 102.818V32.3594Z" fill="#8C8C8C"/>
<path d="M0 158H113" stroke="#8C8C8C" stroke-width="19"/>
</svg>
