<svg width="250" height="250" viewBox="0 0 250 250" fill="none" xmlns="http://www.w3.org/2000/svg">
<rect width="250" height="250" rx="125" fill="white"/>
<g clip-path="url(#clip0_55_70)">
<path d="M191 104H108C99.7157 104 93 110.716 93 119V196C93 204.284 99.7157 211 108 211H191C199.284 211 206 204.284 206 196V119C206 110.716 199.284 104 191 104Z" fill="#05345C"/>
<path d="M52 105V83.2999C52 70.3415 59.3466 58.5034 70.9582 52.751L71.5099 52.4777C80.9875 47.7826 92.1448 47.9319 101.493 52.8789C112.263 58.578 119 69.7645 119 81.9495V105" stroke="#05345C" stroke-width="17"/>
<path d="M149 154C160.046 154 169 146.389 169 137C169 127.611 160.046 120 149 120C137.954 120 129 127.611 129 137C129 146.389 137.954 154 149 154Z" fill="#FFFEFE"/>
<path d="M149 137L165.454 179.75H132.546L149 137Z" fill="#FFFDFD"/>
</g>
<defs>
<clipPath id="clip0_55_70">
<rect width="162" height="172" fill="white" transform="translate(44 39)"/>
</clipPath>
</defs>
</svg>
