<svg width="840" height="986" viewBox="0 0 840 986" fill="none" xmlns="http://www.w3.org/2000/svg">
<rect x="0.5" y="0.5" width="839" height="985" rx="2.5" fill="white" stroke="#C4C4C4"/>
<rect x="110.5" y="247.5" width="619" height="49" rx="2.5" fill="white" stroke="#C4C4C4"/>
<path d="M111.138 227H113.906V222.756H116.232C119.243 222.756 120.994 220.96 120.994 218.345C120.994 215.744 119.275 213.909 116.303 213.909H111.138V227ZM113.906 220.538V216.172H115.772C117.37 216.172 118.143 217.041 118.143 218.345C118.143 219.643 117.37 220.538 115.785 220.538H113.906ZM122.741 227H125.464V221.445C125.464 220.237 126.346 219.406 127.548 219.406C127.925 219.406 128.443 219.47 128.698 219.553V217.137C128.455 217.08 128.117 217.041 127.842 217.041C126.742 217.041 125.841 217.68 125.483 218.895H125.381V217.182H122.741V227ZM134.085 227.192C137.064 227.192 138.918 225.153 138.918 222.129C138.918 219.087 137.064 217.054 134.085 217.054C131.107 217.054 129.253 219.087 129.253 222.129C129.253 225.153 131.107 227.192 134.085 227.192ZM134.098 225.082C132.724 225.082 132.021 223.823 132.021 222.11C132.021 220.397 132.724 219.131 134.098 219.131C135.447 219.131 136.15 220.397 136.15 222.11C136.15 223.823 135.447 225.082 134.098 225.082ZM140.688 217.182V227.441C140.688 228.183 140.375 228.553 139.499 228.553C139.384 228.553 139.282 228.553 139.141 228.54V230.669C139.339 230.675 139.499 230.682 139.691 230.682C142.005 230.682 143.411 229.761 143.411 227.486V217.182H140.688ZM142.043 215.916C142.855 215.916 143.52 215.296 143.52 214.536C143.52 213.781 142.855 213.161 142.043 213.161C141.238 213.161 140.573 213.781 140.573 214.536C140.573 215.296 141.238 215.916 142.043 215.916ZM150.067 227.192C152.496 227.192 154.132 226.009 154.516 224.188L151.997 224.021C151.722 224.769 151.019 225.159 150.112 225.159C148.75 225.159 147.887 224.258 147.887 222.794V222.788H154.573V222.04C154.573 218.703 152.553 217.054 149.958 217.054C147.069 217.054 145.196 219.106 145.196 222.136C145.196 225.249 147.044 227.192 150.067 227.192ZM147.887 221.1C147.945 219.982 148.795 219.087 150.003 219.087C151.186 219.087 152.004 219.93 152.01 221.1H147.887ZM160.786 227.192C163.401 227.192 165.044 225.658 165.171 223.401H162.602C162.442 224.45 161.752 225.038 160.818 225.038C159.546 225.038 158.722 223.97 158.722 222.091C158.722 220.237 159.553 219.176 160.818 219.176C161.816 219.176 162.455 219.835 162.602 220.812H165.171C165.056 218.543 163.337 217.054 160.774 217.054C157.795 217.054 155.954 219.119 155.954 222.129C155.954 225.114 157.763 227.192 160.786 227.192ZM172.137 217.182H170.29V214.83H167.567V217.182H166.224V219.227H167.567V224.341C167.554 226.265 168.864 227.217 170.839 227.134C171.543 227.109 172.041 226.968 172.316 226.879L171.888 224.852C171.754 224.878 171.466 224.942 171.21 224.942C170.667 224.942 170.29 224.737 170.29 223.983V219.227H172.137V217.182ZM189.078 213.909H186.323V222.142H186.208L180.557 213.909H178.128V227H180.896V218.761H180.992L186.687 227H189.078V213.909ZM194.113 227.185C195.564 227.185 196.504 226.553 196.983 225.638H197.06V227H199.642V220.378C199.642 218.038 197.661 217.054 195.474 217.054C193.122 217.054 191.575 218.179 191.198 219.969L193.717 220.173C193.902 219.521 194.484 219.042 195.462 219.042C196.388 219.042 196.919 219.509 196.919 220.314V220.352C196.919 220.985 196.248 221.068 194.541 221.234C192.598 221.413 190.853 222.065 190.853 224.258C190.853 226.201 192.24 227.185 194.113 227.185ZM194.893 225.306C194.055 225.306 193.455 224.916 193.455 224.168C193.455 223.401 194.087 223.024 195.046 222.89C195.641 222.807 196.612 222.666 196.938 222.449V223.491C196.938 224.52 196.088 225.306 194.893 225.306ZM201.755 227H204.478V221.107C204.478 220.02 205.168 219.298 206.076 219.298C206.971 219.298 207.571 219.911 207.571 220.876V227H210.211V221.004C210.211 219.988 210.793 219.298 211.784 219.298C212.653 219.298 213.305 219.841 213.305 220.934V227H216.022V220.397C216.022 218.268 214.756 217.054 212.928 217.054C211.49 217.054 210.371 217.789 209.968 218.914H209.866C209.553 217.776 208.549 217.054 207.201 217.054C205.877 217.054 204.874 217.757 204.465 218.914H204.35V217.182H201.755V227ZM222.647 227.192C225.076 227.192 226.712 226.009 227.096 224.188L224.577 224.021C224.303 224.769 223.599 225.159 222.692 225.159C221.33 225.159 220.467 224.258 220.467 222.794V222.788H227.153V222.04C227.153 218.703 225.134 217.054 222.538 217.054C219.649 217.054 217.776 219.106 217.776 222.136C217.776 225.249 219.624 227.192 222.647 227.192ZM220.467 221.1C220.525 219.982 221.375 219.087 222.583 219.087C223.766 219.087 224.584 219.93 224.59 221.1H220.467Z" fill="#05345C"/>
<path d="M132.585 265.909V279H134.068V269.054H134.196L138.287 279H139.719L143.81 269.054H143.938V279H145.42V265.909H143.528L139.08 276.776H138.926L134.477 265.909H132.585ZM154.582 274.986C154.582 276.827 153.176 277.67 152.051 277.67C150.798 277.67 149.903 276.75 149.903 275.318V269.182H148.394V275.42C148.394 277.926 149.724 279.128 151.565 279.128C153.048 279.128 154.019 278.335 154.48 277.338H154.582V279H156.09V269.182H154.582V274.986ZM165.808 271.381C165.335 269.987 164.274 269.054 162.331 269.054C160.26 269.054 158.725 270.23 158.725 271.892C158.725 273.247 159.531 274.155 161.333 274.577L162.97 274.96C163.961 275.19 164.427 275.663 164.427 276.341C164.427 277.185 163.532 277.875 162.126 277.875C160.892 277.875 160.119 277.344 159.85 276.29L158.419 276.648C158.77 278.316 160.145 279.205 162.152 279.205C164.434 279.205 165.987 277.958 165.987 276.264C165.987 274.896 165.13 274.033 163.379 273.605L161.922 273.247C160.758 272.96 160.234 272.57 160.234 271.815C160.234 270.972 161.129 270.358 162.331 270.358C163.647 270.358 164.191 271.087 164.453 271.764L165.808 271.381ZM168.258 279H169.766V269.182H168.258V279ZM169.025 267.545C169.613 267.545 170.099 267.085 170.099 266.523C170.099 265.96 169.613 265.5 169.025 265.5C168.437 265.5 167.951 265.96 167.951 266.523C167.951 267.085 168.437 267.545 169.025 267.545ZM176.518 279.205C178.691 279.205 180.123 277.875 180.379 276.136H178.87C178.589 277.21 177.694 277.849 176.518 277.849C174.728 277.849 173.577 276.366 173.577 274.091C173.577 271.866 174.754 270.409 176.518 270.409C177.847 270.409 178.64 271.227 178.87 272.122H180.379C180.123 270.281 178.563 269.054 176.492 269.054C173.833 269.054 172.069 271.151 172.069 274.142C172.069 277.082 173.756 279.205 176.518 279.205ZM196.442 265.909V274.449C196.442 276.366 195.125 277.747 192.939 277.747C190.753 277.747 189.436 276.366 189.436 274.449V265.909H187.851V274.577C187.851 277.261 189.858 279.23 192.939 279.23C196.02 279.23 198.027 277.261 198.027 274.577V265.909H196.442ZM202.778 265.909H201.193V279H202.778V265.909Z" fill="#373A3C"/>
<rect x="110.5" y="944.5" width="619" height="41" rx="2.5" fill="white" stroke="#C4C4C4"/>
<path d="M132.585 982H134.17V976.886H137.034C137.149 976.886 137.258 976.886 137.366 976.88L140.128 982H141.969L139.009 976.592C140.678 976.023 141.457 974.662 141.457 972.923C141.457 970.609 140.077 968.909 137.009 968.909H132.585V982ZM134.17 975.455V970.315H136.957C139.08 970.315 139.898 971.351 139.898 972.923C139.898 974.496 139.08 975.455 136.983 975.455H134.17ZM144.099 982H152.102V980.594H145.684V976.145H151.59V974.739H145.684V970.315H151.999V968.909H144.099V982ZM155.394 982L156.71 978.293H162.003L163.32 982H164.982L160.175 968.909H158.539L153.732 982H155.394ZM157.209 976.886L159.306 970.98H159.408L161.504 976.886H157.209ZM171.061 982C175.049 982 177.299 979.52 177.299 975.429C177.299 971.364 175.049 968.909 171.24 968.909H167.021V982H171.061ZM168.606 980.594V970.315H171.137C174.205 970.315 175.765 972.259 175.765 975.429C175.765 978.625 174.205 980.594 170.958 980.594H168.606ZM179.958 968.909V982H181.441V972.054H181.569L185.66 982H187.092L191.183 972.054H191.311V982H192.794V968.909H190.901L186.453 979.776H186.299L181.85 968.909H179.958ZM195.972 982H203.975V980.594H197.557V976.145H203.463V974.739H197.557V970.315H203.873V968.909H195.972V982ZM207.625 982.102C208.257 982.102 208.775 981.585 208.775 980.952C208.775 980.319 208.257 979.801 207.625 979.801C206.992 979.801 206.474 980.319 206.474 980.952C206.474 981.585 206.992 982.102 207.625 982.102ZM211.482 982H212.991V975.864C212.991 974.425 214.039 973.409 215.215 973.409C216.359 973.409 217.158 974.157 217.158 975.276V982H218.692V975.608C218.692 974.342 219.485 973.409 220.866 973.409C221.94 973.409 222.86 973.978 222.86 975.429V982H224.369V975.429C224.369 973.121 223.129 972.054 221.377 972.054C219.971 972.054 218.942 972.7 218.437 973.716H218.335C217.849 972.668 216.992 972.054 215.701 972.054C214.423 972.054 213.477 972.668 213.067 973.716H212.94V972.182H211.482V982ZM230.834 982.205C232.726 982.205 233.365 981.028 233.698 980.491H233.877V982H235.334V968.909H233.826V973.741H233.698C233.365 973.23 232.777 972.054 230.86 972.054C228.38 972.054 226.667 974.023 226.667 977.116C226.667 980.236 228.38 982.205 230.834 982.205ZM231.039 980.849C229.147 980.849 228.175 979.188 228.175 977.091C228.175 975.02 229.121 973.409 231.039 973.409C232.88 973.409 233.851 974.892 233.851 977.091C233.851 979.315 232.854 980.849 231.039 980.849Z" fill="#373A3C"/>
<path d="M660.088 982.205C661.98 982.205 662.619 981.028 662.952 980.491H663.131V982H664.588V968.909H663.08V973.741H662.952C662.619 973.23 662.031 972.054 660.114 972.054C657.634 972.054 655.92 974.023 655.92 977.116C655.92 980.236 657.634 982.205 660.088 982.205ZM660.293 980.849C658.401 980.849 657.429 979.188 657.429 977.091C657.429 975.02 658.375 973.409 660.293 973.409C662.134 973.409 663.105 974.892 663.105 977.091C663.105 979.315 662.108 980.849 660.293 980.849ZM671.677 982.205C673.671 982.205 675.129 981.207 675.589 979.724L674.131 979.315C673.748 980.338 672.859 980.849 671.677 980.849C669.906 980.849 668.685 979.705 668.615 977.602H675.742V976.963C675.742 973.307 673.569 972.054 671.523 972.054C668.864 972.054 667.1 974.151 667.1 977.168C667.1 980.185 668.839 982.205 671.677 982.205ZM668.615 976.298C668.717 974.771 669.798 973.409 671.523 973.409C673.16 973.409 674.208 974.636 674.208 976.298H668.615ZM679.545 968.909H678.037V982H679.545V968.909ZM686.425 982.205C688.419 982.205 689.877 981.207 690.337 979.724L688.879 979.315C688.496 980.338 687.607 980.849 686.425 980.849C684.654 980.849 683.433 979.705 683.363 977.602H690.49V976.963C690.49 973.307 688.317 972.054 686.271 972.054C683.612 972.054 681.848 974.151 681.848 977.168C681.848 980.185 683.587 982.205 686.425 982.205ZM683.363 976.298C683.465 974.771 684.546 973.409 686.271 973.409C687.908 973.409 688.956 974.636 688.956 976.298H683.363ZM697.055 972.182H694.958V969.83H693.45V972.182H691.967V973.46H693.45V979.597C693.45 981.31 694.83 982.128 696.109 982.128C696.671 982.128 697.029 982.026 697.234 981.949L696.927 980.594C696.799 980.619 696.595 980.67 696.262 980.67C695.597 980.67 694.958 980.466 694.958 979.188V973.46H697.055V972.182ZM703.335 982.205C705.329 982.205 706.787 981.207 707.247 979.724L705.79 979.315C705.406 980.338 704.518 980.849 703.335 980.849C701.564 980.849 700.344 979.705 700.273 977.602H707.4V976.963C707.4 973.307 705.227 972.054 703.182 972.054C700.523 972.054 698.758 974.151 698.758 977.168C698.758 980.185 700.497 982.205 703.335 982.205ZM700.273 976.298C700.376 974.771 701.456 973.409 703.182 973.409C704.818 973.409 705.866 974.636 705.866 976.298H700.273Z" fill="#373A3C"/>
<path d="M111.381 906H112.889V899.787C112.889 898.457 113.938 897.486 115.369 897.486C115.772 897.486 116.188 897.562 116.29 897.588V896.054C116.117 896.041 115.721 896.028 115.497 896.028C114.321 896.028 113.298 896.693 112.94 897.665H112.838V896.182H111.381V906ZM120.967 906.23C122.68 906.23 123.575 905.31 123.882 904.67H123.959V906H125.467V899.531C125.467 896.412 123.089 896.054 121.836 896.054C120.354 896.054 118.666 896.565 117.899 898.355L119.331 898.866C119.663 898.151 120.449 897.384 121.888 897.384C123.275 897.384 123.959 898.119 123.959 899.378V899.429C123.959 900.158 123.217 900.094 121.427 900.324C119.606 900.56 117.618 900.963 117.618 903.213C117.618 905.131 119.101 906.23 120.967 906.23ZM121.197 904.875C119.996 904.875 119.126 904.338 119.126 903.29C119.126 902.139 120.175 901.781 121.351 901.628C121.99 901.551 123.703 901.372 123.959 901.065V902.446C123.959 903.673 122.987 904.875 121.197 904.875ZM128.221 909.682H129.729V904.491H129.857C130.189 905.028 130.828 906.205 132.721 906.205C135.175 906.205 136.888 904.236 136.888 901.116C136.888 898.023 135.175 896.054 132.695 896.054C130.777 896.054 130.189 897.23 129.857 897.741H129.678V896.182H128.221V909.682ZM129.703 901.091C129.703 898.892 130.675 897.409 132.516 897.409C134.434 897.409 135.38 899.02 135.38 901.091C135.38 903.188 134.408 904.849 132.516 904.849C130.701 904.849 129.703 903.315 129.703 901.091ZM143.459 896.182H141.363V893.83H139.854V896.182H138.371V897.46H139.854V903.597C139.854 905.31 141.235 906.128 142.513 906.128C143.076 906.128 143.434 906.026 143.638 905.949L143.331 904.594C143.203 904.619 142.999 904.67 142.667 904.67C142.002 904.67 141.363 904.466 141.363 903.188V897.46H143.459V896.182ZM149.612 906.205C152.271 906.205 154.06 904.185 154.06 901.142C154.06 898.074 152.271 896.054 149.612 896.054C146.952 896.054 145.163 898.074 145.163 901.142C145.163 904.185 146.952 906.205 149.612 906.205ZM149.612 904.849C147.592 904.849 146.671 903.111 146.671 901.142C146.671 899.173 147.592 897.409 149.612 897.409C151.631 897.409 152.552 899.173 152.552 901.142C152.552 903.111 151.631 904.849 149.612 904.849ZM156.363 906H157.872V899.787C157.872 898.457 158.92 897.486 160.352 897.486C160.754 897.486 161.17 897.562 161.272 897.588V896.054C161.1 896.041 160.703 896.028 160.48 896.028C159.303 896.028 158.281 896.693 157.923 897.665H157.82V896.182H156.363V906ZM170.603 909.452C171.907 909.452 173.569 909.068 174.362 908.736L174.004 907.56C173.543 907.713 172.06 908.224 170.654 908.224C166.282 908.224 163.955 905.77 163.955 901.423C163.955 897.153 166.333 894.597 170.347 894.597C174.413 894.597 176.33 897.46 176.33 900.324C176.33 903.239 176.023 904.543 174.719 904.543C173.952 904.543 173.543 903.903 173.543 903.188V897.409H172.188V898.125H172.112C171.933 897.562 170.935 897.077 169.657 897.205C167.739 897.409 166.282 898.994 166.282 901.295C166.282 903.724 167.433 905.591 169.657 905.668C171.114 905.719 171.881 905.003 172.188 904.261H172.265C172.418 905.361 173.799 905.744 174.694 905.744C177.404 905.744 177.66 902.83 177.66 900.349C177.66 896.847 175.205 893.395 170.424 893.395C165.489 893.395 162.549 896.386 162.549 901.372C162.549 906.537 165.387 909.452 170.603 909.452ZM169.862 904.364C168.2 904.364 167.612 902.855 167.612 901.219C167.612 899.736 168.455 898.457 169.913 898.457C171.447 898.457 172.265 899.071 172.265 901.219C172.265 903.341 171.575 904.364 169.862 904.364ZM179.918 906H181.426V902.325L182.481 901.347L186.156 906H188.074L183.619 900.375L187.767 896.182H185.901L181.605 900.554H181.426V892.909H179.918V906ZM193.421 906.205C195.415 906.205 196.873 905.207 197.333 903.724L195.876 903.315C195.492 904.338 194.604 904.849 193.421 904.849C191.65 904.849 190.43 903.705 190.359 901.602H197.486V900.963C197.486 897.307 195.313 896.054 193.268 896.054C190.608 896.054 188.844 898.151 188.844 901.168C188.844 904.185 190.583 906.205 193.421 906.205ZM190.359 900.298C190.461 898.771 191.542 897.409 193.268 897.409C194.904 897.409 195.952 898.636 195.952 900.298H190.359ZM201.29 900.094C201.29 898.381 202.351 897.409 203.795 897.409C205.195 897.409 206.045 898.323 206.045 899.864V906H207.554V899.761C207.554 897.256 206.218 896.054 204.23 896.054C202.747 896.054 201.827 896.719 201.366 897.716H201.238V896.182H199.781V906H201.29V900.094ZM214.58 896.182H212.484V893.83H210.975V896.182H209.492V897.46H210.975V903.597C210.975 905.31 212.356 906.128 213.634 906.128C214.197 906.128 214.555 906.026 214.759 905.949L214.452 904.594C214.325 904.619 214.12 904.67 213.788 904.67C213.123 904.67 212.484 904.466 212.484 903.188V897.46H214.58V896.182ZM217.949 906.102C218.582 906.102 219.099 905.585 219.099 904.952C219.099 904.319 218.582 903.801 217.949 903.801C217.316 903.801 216.798 904.319 216.798 904.952C216.798 905.585 217.316 906.102 217.949 906.102ZM224.696 906.23C226.409 906.23 227.304 905.31 227.61 904.67H227.687V906H229.196V899.531C229.196 896.412 226.818 896.054 225.565 896.054C224.082 896.054 222.395 896.565 221.627 898.355L223.059 898.866C223.392 898.151 224.178 897.384 225.616 897.384C227.003 897.384 227.687 898.119 227.687 899.378V899.429C227.687 900.158 226.946 900.094 225.156 900.324C223.334 900.56 221.346 900.963 221.346 903.213C221.346 905.131 222.829 906.23 224.696 906.23ZM224.926 904.875C223.724 904.875 222.855 904.338 222.855 903.29C222.855 902.139 223.903 901.781 225.079 901.628C225.718 901.551 227.431 901.372 227.687 901.065V902.446C227.687 903.673 226.716 904.875 224.926 904.875ZM235.938 906.205C238.111 906.205 239.543 904.875 239.798 903.136H238.29C238.009 904.21 237.114 904.849 235.938 904.849C234.148 904.849 232.997 903.366 232.997 901.091C232.997 898.866 234.173 897.409 235.938 897.409C237.267 897.409 238.06 898.227 238.29 899.122H239.798C239.543 897.281 237.983 896.054 235.912 896.054C233.253 896.054 231.489 898.151 231.489 901.142C231.489 904.082 233.176 906.205 235.938 906.205ZM243.103 906.102C243.736 906.102 244.254 905.585 244.254 904.952C244.254 904.319 243.736 903.801 243.103 903.801C242.47 903.801 241.953 904.319 241.953 904.952C241.953 905.585 242.47 906.102 243.103 906.102ZM253.148 901.986C253.148 903.827 251.742 904.67 250.617 904.67C249.364 904.67 248.469 903.75 248.469 902.318V896.182H246.961V902.42C246.961 904.926 248.29 906.128 250.131 906.128C251.614 906.128 252.586 905.335 253.046 904.338H253.148V906H254.657V896.182H253.148V901.986ZM257.42 906H258.928V902.325L259.983 901.347L263.658 906H265.576L261.121 900.375L265.269 896.182H263.403L259.107 900.554H258.928V892.909H257.42V906ZM268.31 906.102C268.943 906.102 269.461 905.585 269.461 904.952C269.461 904.319 268.943 903.801 268.31 903.801C267.677 903.801 267.16 904.319 267.16 904.952C267.16 905.585 267.677 906.102 268.31 906.102ZM268.31 898.815C268.943 898.815 269.461 898.298 269.461 897.665C269.461 897.032 268.943 896.514 268.31 896.514C267.677 896.514 267.16 897.032 267.16 897.665C267.16 898.298 267.677 898.815 268.31 898.815ZM276.796 892.295H275.415L271.196 907.969H272.577L276.796 892.295ZM283.212 892.295H281.831L277.612 907.969H278.993L283.212 892.295ZM288.988 906.205C291.162 906.205 292.594 904.875 292.849 903.136H291.341C291.059 904.21 290.165 904.849 288.988 904.849C287.199 904.849 286.048 903.366 286.048 901.091C286.048 898.866 287.224 897.409 288.988 897.409C290.318 897.409 291.111 898.227 291.341 899.122H292.849C292.594 897.281 291.034 896.054 288.963 896.054C286.304 896.054 284.54 898.151 284.54 901.142C284.54 904.082 286.227 906.205 288.988 906.205ZM299.043 906.205C301.702 906.205 303.492 904.185 303.492 901.142C303.492 898.074 301.702 896.054 299.043 896.054C296.384 896.054 294.594 898.074 294.594 901.142C294.594 904.185 296.384 906.205 299.043 906.205ZM299.043 904.849C297.023 904.849 296.103 903.111 296.103 901.142C296.103 899.173 297.023 897.409 299.043 897.409C301.063 897.409 301.983 899.173 301.983 901.142C301.983 903.111 301.063 904.849 299.043 904.849ZM310.116 906.179C312.762 906.211 314.488 904.217 314.488 901.781C314.488 899.25 312.615 897.435 310.371 897.435C309.023 897.435 307.866 898.093 307.15 899.173H307.048C307.054 895.984 308.294 894.136 310.32 894.136C311.701 894.136 312.532 895.006 312.826 896.182H314.386C314.066 894.149 312.519 892.73 310.32 892.73C307.374 892.73 305.565 895.338 305.565 899.966C305.565 904.805 307.968 906.153 310.116 906.179ZM310.116 904.773C308.473 904.773 307.271 903.373 307.278 901.807C307.284 900.241 308.543 898.841 310.167 898.841C311.771 898.841 312.954 900.158 312.954 901.781C312.954 903.443 311.72 904.773 310.116 904.773ZM321.271 906.179C324.161 906.179 325.823 903.731 325.823 899.455C325.823 895.21 324.135 892.73 321.271 892.73C318.408 892.73 316.72 895.21 316.72 899.455C316.72 903.731 318.382 906.179 321.271 906.179ZM321.271 904.773C319.367 904.773 318.254 902.862 318.254 899.455C318.254 896.054 319.379 894.111 321.271 894.111C323.164 894.111 324.289 896.054 324.289 899.455C324.289 902.862 323.176 904.773 321.271 904.773ZM332.521 906.179C335.411 906.179 337.073 903.731 337.073 899.455C337.073 895.21 335.385 892.73 332.521 892.73C329.658 892.73 327.97 895.21 327.97 899.455C327.97 903.731 329.632 906.179 332.521 906.179ZM332.521 904.773C330.617 904.773 329.504 902.862 329.504 899.455C329.504 896.054 330.629 894.111 332.521 894.111C334.414 894.111 335.539 896.054 335.539 899.455C335.539 902.862 334.426 904.773 332.521 904.773ZM344.155 892.295H342.774L338.556 907.969H339.936L344.155 892.295ZM345.943 909.682H347.452V904.491H347.58C347.912 905.028 348.551 906.205 350.443 906.205C352.898 906.205 354.611 904.236 354.611 901.116C354.611 898.023 352.898 896.054 350.418 896.054C348.5 896.054 347.912 897.23 347.58 897.741H347.401V896.182H345.943V909.682ZM347.426 901.091C347.426 898.892 348.398 897.409 350.239 897.409C352.156 897.409 353.102 899.02 353.102 901.091C353.102 903.188 352.131 904.849 350.239 904.849C348.423 904.849 347.426 903.315 347.426 901.091ZM356.912 906H358.42V899.787C358.42 898.457 359.469 897.486 360.901 897.486C361.303 897.486 361.719 897.562 361.821 897.588V896.054C361.648 896.041 361.252 896.028 361.028 896.028C359.852 896.028 358.83 896.693 358.472 897.665H358.369V896.182H356.912V906ZM367.299 906.205C369.958 906.205 371.748 904.185 371.748 901.142C371.748 898.074 369.958 896.054 367.299 896.054C364.64 896.054 362.85 898.074 362.85 901.142C362.85 904.185 364.64 906.205 367.299 906.205ZM367.299 904.849C365.279 904.849 364.359 903.111 364.359 901.142C364.359 899.173 365.279 897.409 367.299 897.409C369.319 897.409 370.239 899.173 370.239 901.142C370.239 903.111 369.319 904.849 367.299 904.849ZM374.051 896.182V906.716C374.051 907.713 373.642 908.276 372.721 908.276H372.44V909.682H372.747C374.639 909.682 375.559 908.531 375.559 906.716V896.182H374.051ZM374.792 894.545C375.38 894.545 375.866 894.085 375.866 893.523C375.866 892.96 375.38 892.5 374.792 892.5C374.204 892.5 373.718 892.96 373.718 893.523C373.718 894.085 374.204 894.545 374.792 894.545ZM382.439 906.205C384.433 906.205 385.89 905.207 386.35 903.724L384.893 903.315C384.51 904.338 383.621 904.849 382.439 904.849C380.668 904.849 379.447 903.705 379.377 901.602H386.504V900.963C386.504 897.307 384.331 896.054 382.285 896.054C379.626 896.054 377.862 898.151 377.862 901.168C377.862 904.185 379.6 906.205 382.439 906.205ZM379.377 900.298C379.479 898.771 380.559 897.409 382.285 897.409C383.922 897.409 384.97 898.636 384.97 900.298H379.377ZM392.787 906.205C394.961 906.205 396.392 904.875 396.648 903.136H395.14C394.858 904.21 393.963 904.849 392.787 904.849C390.998 904.849 389.847 903.366 389.847 901.091C389.847 898.866 391.023 897.409 392.787 897.409C394.117 897.409 394.909 898.227 395.14 899.122H396.648C396.392 897.281 394.833 896.054 392.762 896.054C390.103 896.054 388.338 898.151 388.338 901.142C388.338 904.082 390.026 906.205 392.787 906.205ZM403.123 896.182H401.027V893.83H399.518V896.182H398.035V897.46H399.518V903.597C399.518 905.31 400.899 906.128 402.177 906.128C402.74 906.128 403.098 906.026 403.302 905.949L402.995 904.594C402.868 904.619 402.663 904.67 402.331 904.67C401.666 904.67 401.027 904.466 401.027 903.188V897.46H403.123V896.182ZM412.171 898.381C411.698 896.987 410.637 896.054 408.694 896.054C406.623 896.054 405.089 897.23 405.089 898.892C405.089 900.247 405.894 901.155 407.697 901.577L409.333 901.96C410.324 902.19 410.79 902.663 410.79 903.341C410.79 904.185 409.896 904.875 408.489 904.875C407.256 904.875 406.482 904.344 406.214 903.29L404.782 903.648C405.134 905.316 406.508 906.205 408.515 906.205C410.797 906.205 412.35 904.958 412.35 903.264C412.35 901.896 411.494 901.033 409.742 900.605L408.285 900.247C407.121 899.96 406.597 899.57 406.597 898.815C406.597 897.972 407.492 897.358 408.694 897.358C410.011 897.358 410.554 898.087 410.816 898.764L412.171 898.381ZM419.249 892.295H417.868L413.649 907.969H415.03L419.249 892.295ZM421.037 906H422.545V899.864C422.545 898.425 423.594 897.409 424.77 897.409C425.914 897.409 426.713 898.157 426.713 899.276V906H428.247V899.608C428.247 898.342 429.04 897.409 430.42 897.409C431.494 897.409 432.415 897.978 432.415 899.429V906H433.923V899.429C433.923 897.121 432.683 896.054 430.932 896.054C429.526 896.054 428.496 896.7 427.991 897.716H427.889C427.403 896.668 426.547 896.054 425.256 896.054C423.977 896.054 423.031 896.668 422.622 897.716H422.494V896.182H421.037V906ZM442.869 901.986C442.869 903.827 441.463 904.67 440.338 904.67C439.085 904.67 438.19 903.75 438.19 902.318V896.182H436.681V902.42C436.681 904.926 438.011 906.128 439.852 906.128C441.335 906.128 442.306 905.335 442.767 904.338H442.869V906H444.377V896.182H442.869V901.986ZM454.095 898.381C453.622 896.987 452.561 896.054 450.618 896.054C448.547 896.054 447.013 897.23 447.013 898.892C447.013 900.247 447.818 901.155 449.621 901.577L451.257 901.96C452.248 902.19 452.714 902.663 452.714 903.341C452.714 904.185 451.819 904.875 450.413 904.875C449.18 904.875 448.406 904.344 448.138 903.29L446.706 903.648C447.057 905.316 448.432 906.205 450.439 906.205C452.721 906.205 454.274 904.958 454.274 903.264C454.274 901.896 453.417 901.033 451.666 900.605L450.209 900.247C449.045 899.96 448.521 899.57 448.521 898.815C448.521 897.972 449.416 897.358 450.618 897.358C451.934 897.358 452.478 898.087 452.74 898.764L454.095 898.381ZM456.545 906H458.053V896.182H456.545V906ZM457.312 894.545C457.9 894.545 458.386 894.085 458.386 893.523C458.386 892.96 457.9 892.5 457.312 892.5C456.724 892.5 456.238 892.96 456.238 893.523C456.238 894.085 456.724 894.545 457.312 894.545ZM464.805 906.205C466.978 906.205 468.41 904.875 468.666 903.136H467.157C466.876 904.21 465.981 904.849 464.805 904.849C463.015 904.849 461.865 903.366 461.865 901.091C461.865 898.866 463.041 897.409 464.805 897.409C466.134 897.409 466.927 898.227 467.157 899.122H468.666C468.41 897.281 466.85 896.054 464.779 896.054C462.12 896.054 460.356 898.151 460.356 901.142C460.356 904.082 462.044 906.205 464.805 906.205ZM476.496 899.685H470.769V901.091H476.496V899.685ZM485.338 901.986C485.338 903.827 483.931 904.67 482.806 904.67C481.554 904.67 480.659 903.75 480.659 902.318V896.182H479.15V902.42C479.15 904.926 480.48 906.128 482.321 906.128C483.804 906.128 484.775 905.335 485.235 904.338H485.338V906H486.846V896.182H485.338V901.986ZM489.609 906H491.118V896.182H489.609V906ZM490.376 894.545C490.964 894.545 491.45 894.085 491.45 893.523C491.45 892.96 490.964 892.5 490.376 892.5C489.788 892.5 489.302 892.96 489.302 893.523C489.302 894.085 489.788 894.545 490.376 894.545Z" fill="#373A3C"/>
<path d="M111.138 867H113.906V861.592H119.23V859.31H113.906V856.191H119.805V853.909H111.138V867ZM121.616 867H124.339V857.182H121.616V867ZM122.984 855.916C123.796 855.916 124.46 855.296 124.46 854.536C124.46 853.781 123.796 853.161 122.984 853.161C122.178 853.161 121.514 853.781 121.514 854.536C121.514 855.296 122.178 855.916 122.984 855.916ZM129.243 853.909H126.52V867H129.243V853.909ZM135.899 867.192C138.328 867.192 139.964 866.009 140.348 864.188L137.829 864.021C137.555 864.769 136.851 865.159 135.944 865.159C134.582 865.159 133.719 864.258 133.719 862.794V862.788H140.405V862.04C140.405 858.703 138.385 857.054 135.79 857.054C132.901 857.054 131.028 859.106 131.028 862.136C131.028 865.249 132.876 867.192 135.899 867.192ZM133.719 861.1C133.777 859.982 134.627 859.087 135.835 859.087C137.018 859.087 137.836 859.93 137.842 861.1H133.719ZM150.351 859.982C150.108 858.173 148.651 857.054 146.171 857.054C143.659 857.054 142.003 858.217 142.01 860.109C142.003 861.58 142.93 862.532 144.848 862.915L146.548 863.254C147.405 863.427 147.795 863.74 147.807 864.232C147.795 864.814 147.162 865.229 146.209 865.229C145.238 865.229 144.592 864.814 144.426 864.015L141.748 864.156C142.003 866.035 143.601 867.192 146.203 867.192C148.747 867.192 150.569 865.894 150.575 863.957C150.569 862.538 149.642 861.688 147.737 861.298L145.96 860.94C145.046 860.742 144.707 860.429 144.714 859.956C144.707 859.368 145.372 858.984 146.216 858.984C147.162 858.984 147.724 859.502 147.858 860.135L150.351 859.982Z" fill="#05345C"/>
<rect x="581" y="856" width="148" height="50" rx="3" fill="#12664F"/>
<path d="M622.394 888L623.366 885.015H628.089L629.061 888H632.027L627.514 874.909H623.947L619.428 888H622.394ZM624.069 882.854L625.68 877.901H625.782L627.393 882.854H624.069ZM636.712 888.16C638.298 888.16 639.122 887.246 639.499 886.428H639.614V888H642.299V874.909H639.582V879.831H639.499C639.135 879.032 638.349 878.054 636.706 878.054C634.552 878.054 632.73 879.729 632.73 883.104C632.73 886.389 634.475 888.16 636.712 888.16ZM637.575 885.993C636.239 885.993 635.511 884.804 635.511 883.091C635.511 881.391 636.227 880.221 637.575 880.221C638.898 880.221 639.64 881.339 639.64 883.091C639.64 884.842 638.886 885.993 637.575 885.993ZM648.156 888.16C649.741 888.16 650.566 887.246 650.943 886.428H651.058V888H653.742V874.909H651.026V879.831H650.943C650.578 879.032 649.792 878.054 648.149 878.054C645.995 878.054 644.173 879.729 644.173 883.104C644.173 886.389 645.919 888.16 648.156 888.16ZM649.019 885.993C647.683 885.993 646.954 884.804 646.954 883.091C646.954 881.391 647.67 880.221 649.019 880.221C650.342 880.221 651.083 881.339 651.083 883.091C651.083 884.842 650.329 885.993 649.019 885.993ZM660.198 888H662.966V882.592H668.291V880.31H662.966V877.191H668.866V874.909H660.198V888ZM670.676 888H673.4V878.182H670.676V888ZM672.044 876.916C672.856 876.916 673.521 876.296 673.521 875.536C673.521 874.781 672.856 874.161 672.044 874.161C671.239 874.161 670.574 874.781 670.574 875.536C670.574 876.296 671.239 876.916 672.044 876.916ZM678.304 874.909H675.581V888H678.304V874.909ZM684.96 888.192C687.388 888.192 689.025 887.009 689.408 885.188L686.89 885.021C686.615 885.769 685.912 886.159 685.004 886.159C683.643 886.159 682.78 885.258 682.78 883.794V883.788H689.466V883.04C689.466 879.703 687.446 878.054 684.851 878.054C681.962 878.054 680.089 880.106 680.089 883.136C680.089 886.249 681.936 888.192 684.96 888.192ZM682.78 882.1C682.837 880.982 683.688 880.087 684.896 880.087C686.078 880.087 686.896 880.93 686.903 882.1H682.78Z" fill="white"/>
<rect x="113.5" y="535.5" width="441" height="49" rx="2.5" fill="white" stroke="#C4C4C4"/>
<rect x="112.5" y="625.5" width="619" height="177" rx="2.5" fill="white" stroke="#C4C4C4"/>
<path d="M134.585 663H136.17V658.219H139.034C142.083 658.219 143.457 656.365 143.457 654.051C143.457 651.737 142.083 649.909 139.009 649.909H134.585V663ZM136.17 656.812V651.315H138.957C141.086 651.315 141.898 652.479 141.898 654.051C141.898 655.624 141.086 656.812 138.983 656.812H136.17ZM147.315 657.094C147.315 655.381 148.408 654.409 149.897 654.409C151.316 654.409 152.173 655.304 152.173 656.864V663H153.681V656.761C153.681 654.237 152.339 653.054 150.332 653.054C148.785 653.054 147.903 653.7 147.443 654.716H147.315V649.909H145.806V663H147.315V657.094ZM156.441 663H157.95V653.182H156.441V663ZM157.208 651.545C157.796 651.545 158.282 651.085 158.282 650.523C158.282 649.96 157.796 649.5 157.208 649.5C156.62 649.5 156.134 649.96 156.134 650.523C156.134 651.085 156.62 651.545 157.208 651.545ZM162.221 649.909H160.713V663H162.221V649.909ZM166.493 649.909H164.984V663H166.493V649.909ZM169.256 663H170.764V653.182H169.256V663ZM170.023 651.545C170.611 651.545 171.097 651.085 171.097 650.523C171.097 649.96 170.611 649.5 170.023 649.5C169.435 649.5 168.949 649.96 168.949 650.523C168.949 651.085 169.435 651.545 170.023 651.545ZM173.527 666.682H175.036V661.491H175.164C175.496 662.028 176.135 663.205 178.027 663.205C180.482 663.205 182.195 661.236 182.195 658.116C182.195 655.023 180.482 653.054 178.002 653.054C176.084 653.054 175.496 654.23 175.164 654.741H174.985V653.182H173.527V666.682ZM175.01 658.091C175.01 655.892 175.982 654.409 177.823 654.409C179.74 654.409 180.686 656.02 180.686 658.091C180.686 660.188 179.715 661.849 177.823 661.849C176.007 661.849 175.01 660.315 175.01 658.091ZM189.763 649.909V663H191.246V653.054H191.374L195.465 663H196.896L200.987 653.054H201.115V663H202.598V649.909H200.706L196.257 660.776H196.104L191.655 649.909H189.763ZM209.561 663.205C212.22 663.205 214.01 661.185 214.01 658.142C214.01 655.074 212.22 653.054 209.561 653.054C206.902 653.054 205.112 655.074 205.112 658.142C205.112 661.185 206.902 663.205 209.561 663.205ZM209.561 661.849C207.541 661.849 206.62 660.111 206.62 658.142C206.62 656.173 207.541 654.409 209.561 654.409C211.581 654.409 212.501 656.173 212.501 658.142C212.501 660.111 211.581 661.849 209.561 661.849ZM216.312 663H217.821V656.787C217.821 655.457 218.869 654.486 220.301 654.486C220.704 654.486 221.119 654.562 221.221 654.588V653.054C221.049 653.041 220.653 653.028 220.429 653.028C219.253 653.028 218.23 653.693 217.872 654.665H217.77V653.182H216.312V663ZM226.827 663.205C228.822 663.205 230.279 662.207 230.739 660.724L229.282 660.315C228.898 661.338 228.01 661.849 226.827 661.849C225.057 661.849 223.836 660.705 223.765 658.602H230.893V657.963C230.893 654.307 228.719 653.054 226.674 653.054C224.015 653.054 222.251 655.151 222.251 658.168C222.251 661.185 223.989 663.205 226.827 663.205ZM223.765 657.298C223.868 655.771 224.948 654.409 226.674 654.409C228.31 654.409 229.358 655.636 229.358 657.298H223.765ZM234.696 657.094C234.696 655.381 235.757 654.409 237.202 654.409C238.601 654.409 239.452 655.323 239.452 656.864V663H240.96V656.761C240.96 654.256 239.624 653.054 237.636 653.054C236.153 653.054 235.233 653.719 234.773 654.716H234.645V653.182H233.187V663H234.696V657.094ZM247.705 663.205C250.364 663.205 252.154 661.185 252.154 658.142C252.154 655.074 250.364 653.054 247.705 653.054C245.046 653.054 243.256 655.074 243.256 658.142C243.256 661.185 245.046 663.205 247.705 663.205ZM247.705 661.849C245.685 661.849 244.765 660.111 244.765 658.142C244.765 656.173 245.685 654.409 247.705 654.409C249.725 654.409 250.646 656.173 250.646 658.142C250.646 660.111 249.725 661.849 247.705 661.849Z" fill="#373A3C"/>
<path d="M648.381 663H649.889V656.787C649.889 655.457 650.938 654.486 652.369 654.486C652.772 654.486 653.188 654.562 653.29 654.588V653.054C653.117 653.041 652.721 653.028 652.497 653.028C651.321 653.028 650.298 653.693 649.94 654.665H649.838V653.182H648.381V663ZM658.896 663.205C660.89 663.205 662.347 662.207 662.808 660.724L661.35 660.315C660.967 661.338 660.078 661.849 658.896 661.849C657.125 661.849 655.904 660.705 655.834 658.602H662.961V657.963C662.961 654.307 660.788 653.054 658.742 653.054C656.083 653.054 654.319 655.151 654.319 658.168C654.319 661.185 656.058 663.205 658.896 663.205ZM655.834 657.298C655.936 655.771 657.016 654.409 658.742 654.409C660.379 654.409 661.427 655.636 661.427 657.298H655.834ZM665.256 663H666.764V656.864C666.764 655.425 667.812 654.409 668.989 654.409C670.133 654.409 670.932 655.157 670.932 656.276V663H672.466V656.608C672.466 655.342 673.259 654.409 674.639 654.409C675.713 654.409 676.634 654.978 676.634 656.429V663H678.142V656.429C678.142 654.121 676.902 653.054 675.151 653.054C673.744 653.054 672.715 653.7 672.21 654.716H672.108C671.622 653.668 670.766 653.054 669.474 653.054C668.196 653.054 667.25 653.668 666.841 654.716H666.713V653.182H665.256V663ZM684.889 663.205C687.548 663.205 689.338 661.185 689.338 658.142C689.338 655.074 687.548 653.054 684.889 653.054C682.23 653.054 680.44 655.074 680.44 658.142C680.44 661.185 682.23 663.205 684.889 663.205ZM684.889 661.849C682.869 661.849 681.949 660.111 681.949 658.142C681.949 656.173 682.869 654.409 684.889 654.409C686.909 654.409 687.829 656.173 687.829 658.142C687.829 660.111 686.909 661.849 684.889 661.849ZM699.317 653.182H697.681L694.971 661.006H694.868L692.158 653.182H690.522L694.153 663H695.687L699.317 653.182ZM705.073 663.205C707.068 663.205 708.525 662.207 708.985 660.724L707.528 660.315C707.144 661.338 706.256 661.849 705.073 661.849C703.303 661.849 702.082 660.705 702.012 658.602H709.139V657.963C709.139 654.307 706.965 653.054 704.92 653.054C702.261 653.054 700.497 655.151 700.497 658.168C700.497 661.185 702.235 663.205 705.073 663.205ZM702.012 657.298C702.114 655.771 703.194 654.409 704.92 654.409C706.556 654.409 707.605 655.636 707.605 657.298H702.012Z" fill="#373A3C"/>
<path d="M648.381 725H649.889V718.787C649.889 717.457 650.938 716.486 652.369 716.486C652.772 716.486 653.188 716.562 653.29 716.588V715.054C653.117 715.041 652.721 715.028 652.497 715.028C651.321 715.028 650.298 715.693 649.94 716.665H649.838V715.182H648.381V725ZM658.896 725.205C660.89 725.205 662.347 724.207 662.808 722.724L661.35 722.315C660.967 723.338 660.078 723.849 658.896 723.849C657.125 723.849 655.904 722.705 655.834 720.602H662.961V719.963C662.961 716.307 660.788 715.054 658.742 715.054C656.083 715.054 654.319 717.151 654.319 720.168C654.319 723.185 656.058 725.205 658.896 725.205ZM655.834 719.298C655.936 717.771 657.016 716.409 658.742 716.409C660.379 716.409 661.427 717.636 661.427 719.298H655.834ZM665.256 725H666.764V718.864C666.764 717.425 667.812 716.409 668.989 716.409C670.133 716.409 670.932 717.157 670.932 718.276V725H672.466V718.608C672.466 717.342 673.259 716.409 674.639 716.409C675.713 716.409 676.634 716.978 676.634 718.429V725H678.142V718.429C678.142 716.121 676.902 715.054 675.151 715.054C673.744 715.054 672.715 715.7 672.21 716.716H672.108C671.622 715.668 670.766 715.054 669.474 715.054C668.196 715.054 667.25 715.668 666.841 716.716H666.713V715.182H665.256V725ZM684.889 725.205C687.548 725.205 689.338 723.185 689.338 720.142C689.338 717.074 687.548 715.054 684.889 715.054C682.23 715.054 680.44 717.074 680.44 720.142C680.44 723.185 682.23 725.205 684.889 725.205ZM684.889 723.849C682.869 723.849 681.949 722.111 681.949 720.142C681.949 718.173 682.869 716.409 684.889 716.409C686.909 716.409 687.829 718.173 687.829 720.142C687.829 722.111 686.909 723.849 684.889 723.849ZM699.317 715.182H697.681L694.971 723.006H694.868L692.158 715.182H690.522L694.153 725H695.687L699.317 715.182ZM705.073 725.205C707.068 725.205 708.525 724.207 708.985 722.724L707.528 722.315C707.144 723.338 706.256 723.849 705.073 723.849C703.303 723.849 702.082 722.705 702.012 720.602H709.139V719.963C709.139 716.307 706.965 715.054 704.92 715.054C702.261 715.054 700.497 717.151 700.497 720.168C700.497 723.185 702.235 725.205 705.073 725.205ZM702.012 719.298C702.114 717.771 703.194 716.409 704.92 716.409C706.556 716.409 707.605 717.636 707.605 719.298H702.012Z" fill="#373A3C"/>
<path d="M649.381 783H650.889V776.787C650.889 775.457 651.938 774.486 653.369 774.486C653.772 774.486 654.188 774.562 654.29 774.588V773.054C654.117 773.041 653.721 773.028 653.497 773.028C652.321 773.028 651.298 773.693 650.94 774.665H650.838V773.182H649.381V783ZM659.896 783.205C661.89 783.205 663.347 782.207 663.808 780.724L662.35 780.315C661.967 781.338 661.078 781.849 659.896 781.849C658.125 781.849 656.904 780.705 656.834 778.602H663.961V777.963C663.961 774.307 661.788 773.054 659.742 773.054C657.083 773.054 655.319 775.151 655.319 778.168C655.319 781.185 657.058 783.205 659.896 783.205ZM656.834 777.298C656.936 775.771 658.016 774.409 659.742 774.409C661.379 774.409 662.427 775.636 662.427 777.298H656.834ZM666.256 783H667.764V776.864C667.764 775.425 668.812 774.409 669.989 774.409C671.133 774.409 671.932 775.157 671.932 776.276V783H673.466V776.608C673.466 775.342 674.259 774.409 675.639 774.409C676.713 774.409 677.634 774.978 677.634 776.429V783H679.142V776.429C679.142 774.121 677.902 773.054 676.151 773.054C674.744 773.054 673.715 773.7 673.21 774.716H673.108C672.622 773.668 671.766 773.054 670.474 773.054C669.196 773.054 668.25 773.668 667.841 774.716H667.713V773.182H666.256V783ZM685.889 783.205C688.548 783.205 690.338 781.185 690.338 778.142C690.338 775.074 688.548 773.054 685.889 773.054C683.23 773.054 681.44 775.074 681.44 778.142C681.44 781.185 683.23 783.205 685.889 783.205ZM685.889 781.849C683.869 781.849 682.949 780.111 682.949 778.142C682.949 776.173 683.869 774.409 685.889 774.409C687.909 774.409 688.829 776.173 688.829 778.142C688.829 780.111 687.909 781.849 685.889 781.849ZM700.317 773.182H698.681L695.971 781.006H695.868L693.158 773.182H691.522L695.153 783H696.687L700.317 773.182ZM706.073 783.205C708.068 783.205 709.525 782.207 709.985 780.724L708.528 780.315C708.144 781.338 707.256 781.849 706.073 781.849C704.303 781.849 703.082 780.705 703.012 778.602H710.139V777.963C710.139 774.307 707.965 773.054 705.92 773.054C703.261 773.054 701.497 775.151 701.497 778.168C701.497 781.185 703.235 783.205 706.073 783.205ZM703.012 777.298C703.114 775.771 704.194 774.409 705.92 774.409C707.556 774.409 708.605 775.636 708.605 777.298H703.012Z" fill="#373A3C"/>
<path d="M138.625 725C142.614 725 144.864 722.52 144.864 718.429C144.864 714.364 142.614 711.909 138.804 711.909H134.585V725H138.625ZM136.17 723.594V713.315H138.702C141.77 713.315 143.33 715.259 143.33 718.429C143.33 721.625 141.77 723.594 138.523 723.594H136.17ZM151.435 725.205C153.429 725.205 154.886 724.207 155.347 722.724L153.889 722.315C153.506 723.338 152.617 723.849 151.435 723.849C149.664 723.849 148.443 722.705 148.373 720.602H155.5V719.963C155.5 716.307 153.327 715.054 151.281 715.054C148.622 715.054 146.858 717.151 146.858 720.168C146.858 723.185 148.597 725.205 151.435 725.205ZM148.373 719.298C148.475 717.771 149.555 716.409 151.281 716.409C152.918 716.409 153.966 717.636 153.966 719.298H148.373ZM165.524 715.182H163.888L161.178 723.006H161.075L158.365 715.182H156.729L160.36 725H161.894L165.524 715.182ZM171.153 725.205C173.812 725.205 175.601 723.185 175.601 720.142C175.601 717.074 173.812 715.054 171.153 715.054C168.493 715.054 166.704 717.074 166.704 720.142C166.704 723.185 168.493 725.205 171.153 725.205ZM171.153 723.849C169.133 723.849 168.212 722.111 168.212 720.142C168.212 718.173 169.133 716.409 171.153 716.409C173.172 716.409 174.093 718.173 174.093 720.142C174.093 722.111 173.172 723.849 171.153 723.849ZM179.413 719.094C179.413 717.381 180.474 716.409 181.918 716.409C183.318 716.409 184.168 717.323 184.168 718.864V725H185.677V718.761C185.677 716.256 184.341 715.054 182.353 715.054C180.87 715.054 179.95 715.719 179.489 716.716H179.362V715.182H177.904V725H179.413V719.094ZM193.7 725H198.431C201.524 725 202.803 723.491 202.803 721.523C202.803 719.452 201.371 718.327 200.169 718.25V718.122C201.294 717.815 202.291 717.074 202.291 715.386C202.291 713.469 201.013 711.909 198.277 711.909H193.7V725ZM195.286 723.594V719.043H198.507C200.22 719.043 201.294 720.193 201.294 721.523C201.294 722.673 200.502 723.594 198.431 723.594H195.286ZM195.286 717.662V713.315H198.277C200.016 713.315 200.783 714.236 200.783 715.386C200.783 716.767 199.658 717.662 198.226 717.662H195.286ZM208.092 725.23C209.805 725.23 210.7 724.31 211.007 723.67H211.084V725H212.592V718.531C212.592 715.412 210.214 715.054 208.961 715.054C207.479 715.054 205.791 715.565 205.024 717.355L206.456 717.866C206.788 717.151 207.574 716.384 209.013 716.384C210.4 716.384 211.084 717.119 211.084 718.378V718.429C211.084 719.158 210.342 719.094 208.552 719.324C206.731 719.56 204.743 719.963 204.743 722.213C204.743 724.131 206.226 725.23 208.092 725.23ZM208.322 723.875C207.121 723.875 206.251 723.338 206.251 722.29C206.251 721.139 207.3 720.781 208.476 720.628C209.115 720.551 210.828 720.372 211.084 720.065V721.446C211.084 722.673 210.112 723.875 208.322 723.875ZM215.346 725H216.854V718.787C216.854 717.457 217.902 716.486 219.334 716.486C219.737 716.486 220.152 716.562 220.255 716.588V715.054C220.082 715.041 219.686 715.028 219.462 715.028C218.286 715.028 217.263 715.693 216.905 716.665H216.803V715.182H215.346V725ZM222.043 725H223.551V718.787C223.551 717.457 224.6 716.486 226.031 716.486C226.434 716.486 226.85 716.562 226.952 716.588V715.054C226.779 715.041 226.383 715.028 226.159 715.028C224.983 715.028 223.96 715.693 223.602 716.665H223.5V715.182H222.043V725ZM232.558 725.205C234.552 725.205 236.009 724.207 236.47 722.724L235.012 722.315C234.629 723.338 233.74 723.849 232.558 723.849C230.787 723.849 229.566 722.705 229.496 720.602H236.623V719.963C236.623 716.307 234.45 715.054 232.404 715.054C229.745 715.054 227.981 717.151 227.981 720.168C227.981 723.185 229.72 725.205 232.558 725.205ZM229.496 719.298C229.598 717.771 230.678 716.409 232.404 716.409C234.041 716.409 235.089 717.636 235.089 719.298H229.496ZM243.188 715.182H241.091V712.83H239.583V715.182H238.1V716.46H239.583V722.597C239.583 724.31 240.963 725.128 242.242 725.128C242.804 725.128 243.162 725.026 243.367 724.949L243.06 723.594C242.932 723.619 242.727 723.67 242.395 723.67C241.73 723.67 241.091 723.466 241.091 722.188V716.46H243.188V715.182ZM249.727 715.182H247.63V712.83H246.122V715.182H244.639V716.46H246.122V722.597C246.122 724.31 247.502 725.128 248.781 725.128C249.343 725.128 249.701 725.026 249.906 724.949L249.599 723.594C249.471 723.619 249.267 723.67 248.934 723.67C248.269 723.67 247.63 723.466 247.63 722.188V716.46H249.727V715.182Z" fill="#373A3C"/>
<path d="M144.119 774C143.634 771.315 141.486 769.73 138.852 769.73C135.503 769.73 133.074 772.312 133.074 776.455C133.074 780.597 135.503 783.179 138.852 783.179C141.486 783.179 143.634 781.594 144.119 778.909H142.534C142.151 780.724 140.591 781.696 138.852 781.696C136.474 781.696 134.608 779.855 134.608 776.455C134.608 773.054 136.474 771.213 138.852 771.213C140.591 771.213 142.151 772.185 142.534 774H144.119ZM150.465 783.205C153.124 783.205 154.914 781.185 154.914 778.142C154.914 775.074 153.124 773.054 150.465 773.054C147.806 773.054 146.016 775.074 146.016 778.142C146.016 781.185 147.806 783.205 150.465 783.205ZM150.465 781.849C148.445 781.849 147.525 780.111 147.525 778.142C147.525 776.173 148.445 774.409 150.465 774.409C152.485 774.409 153.405 776.173 153.405 778.142C153.405 780.111 152.485 781.849 150.465 781.849ZM163.404 778.986C163.404 780.827 161.998 781.67 160.873 781.67C159.62 781.67 158.725 780.75 158.725 779.318V773.182H157.217V779.42C157.217 781.926 158.546 783.128 160.387 783.128C161.87 783.128 162.842 782.335 163.302 781.338H163.404V783H164.913V773.182H163.404V778.986ZM167.676 783H169.184V776.787C169.184 775.457 170.232 774.486 171.664 774.486C172.067 774.486 172.482 774.562 172.585 774.588V773.054C172.412 773.041 172.016 773.028 171.792 773.028C170.616 773.028 169.593 773.693 169.235 774.665H169.133V773.182H167.676V783ZM179.258 773.182H177.161V770.83H175.653V773.182H174.17V774.46H175.653V780.597C175.653 782.31 177.034 783.128 178.312 783.128C178.874 783.128 179.232 783.026 179.437 782.949L179.13 781.594C179.002 781.619 178.798 781.67 178.465 781.67C177.801 781.67 177.161 781.466 177.161 780.188V774.46H179.258V773.182ZM183.036 777.094C183.036 775.381 184.097 774.409 185.541 774.409C186.941 774.409 187.791 775.323 187.791 776.864V783H189.3V776.761C189.3 774.256 187.964 773.054 185.976 773.054C184.493 773.054 183.573 773.719 183.112 774.716H182.985V773.182H181.527V783H183.036V777.094ZM196.173 783.205C198.167 783.205 199.625 782.207 200.085 780.724L198.627 780.315C198.244 781.338 197.355 781.849 196.173 781.849C194.402 781.849 193.181 780.705 193.111 778.602H200.238V777.963C200.238 774.307 198.065 773.054 196.02 773.054C193.36 773.054 191.596 775.151 191.596 778.168C191.596 781.185 193.335 783.205 196.173 783.205ZM193.111 777.298C193.213 775.771 194.294 774.409 196.02 774.409C197.656 774.409 198.704 775.636 198.704 777.298H193.111ZM203.206 786.682C204.567 786.682 205.526 785.96 206.095 784.432L210.275 773.207L208.626 773.182L205.916 781.006H205.814L203.104 773.182H201.467L205.098 783.051L204.817 783.818C204.267 785.314 203.589 785.455 202.49 785.173L202.106 786.503C202.26 786.58 202.694 786.682 203.206 786.682ZM218.075 783L219.392 779.293H224.685L226.001 783H227.663L222.857 769.909H221.22L216.413 783H218.075ZM219.891 777.886L221.987 771.98H222.089L224.186 777.886H219.891ZM231.006 769.909H229.498V783H231.006V769.909ZM237.886 783.205C239.88 783.205 241.338 782.207 241.798 780.724L240.34 780.315C239.957 781.338 239.068 781.849 237.886 781.849C236.115 781.849 234.894 780.705 234.824 778.602H241.951V777.963C241.951 774.307 239.778 773.054 237.732 773.054C235.073 773.054 233.309 775.151 233.309 778.168C233.309 781.185 235.048 783.205 237.886 783.205ZM234.824 777.298C234.926 775.771 236.007 774.409 237.732 774.409C239.369 774.409 240.417 775.636 240.417 777.298H234.824ZM245.107 773.182H243.369L246.488 778.091L243.369 783H245.107L247.46 779.19L249.812 783H251.55L248.38 778.091L251.55 773.182H249.812L247.46 777.196L245.107 773.182ZM256.592 783.23C258.305 783.23 259.2 782.31 259.507 781.67H259.584V783H261.092V776.531C261.092 773.412 258.714 773.054 257.461 773.054C255.979 773.054 254.291 773.565 253.524 775.355L254.956 775.866C255.288 775.151 256.074 774.384 257.513 774.384C258.9 774.384 259.584 775.119 259.584 776.378V776.429C259.584 777.158 258.842 777.094 257.052 777.324C255.231 777.56 253.243 777.963 253.243 780.213C253.243 782.131 254.726 783.23 256.592 783.23ZM256.822 781.875C255.621 781.875 254.751 781.338 254.751 780.29C254.751 779.139 255.8 778.781 256.976 778.628C257.615 778.551 259.328 778.372 259.584 778.065V779.446C259.584 780.673 258.612 781.875 256.822 781.875ZM265.354 777.094C265.354 775.381 266.415 774.409 267.86 774.409C269.26 774.409 270.11 775.323 270.11 776.864V783H271.618V776.761C271.618 774.256 270.282 773.054 268.294 773.054C266.811 773.054 265.891 773.719 265.431 774.716H265.303V773.182H263.846V783H265.354V777.094ZM278.082 783.205C279.974 783.205 280.613 782.028 280.946 781.491H281.125V783H282.582V769.909H281.074V774.741H280.946C280.613 774.23 280.025 773.054 278.108 773.054C275.628 773.054 273.915 775.023 273.915 778.116C273.915 781.236 275.628 783.205 278.082 783.205ZM278.287 781.849C276.395 781.849 275.423 780.188 275.423 778.091C275.423 776.02 276.369 774.409 278.287 774.409C280.128 774.409 281.099 775.892 281.099 778.091C281.099 780.315 280.102 781.849 278.287 781.849ZM289.671 783.205C291.665 783.205 293.123 782.207 293.583 780.724L292.126 780.315C291.742 781.338 290.854 781.849 289.671 781.849C287.9 781.849 286.68 780.705 286.609 778.602H293.736V777.963C293.736 774.307 291.563 773.054 289.518 773.054C286.858 773.054 285.094 775.151 285.094 778.168C285.094 781.185 286.833 783.205 289.671 783.205ZM286.609 777.298C286.711 775.771 287.792 774.409 289.518 774.409C291.154 774.409 292.202 775.636 292.202 777.298H286.609ZM296.031 783H297.54V776.787C297.54 775.457 298.588 774.486 300.02 774.486C300.422 774.486 300.838 774.562 300.94 774.588V773.054C300.768 773.041 300.371 773.028 300.148 773.028C298.971 773.028 297.949 773.693 297.591 774.665H297.488V773.182H296.031V783Z" fill="#373A3C"/>
<path d="M141.744 557.182H143.278C143.208 555.207 141.386 553.73 138.855 553.73C136.349 553.73 134.381 555.188 134.381 557.386C134.381 559.151 135.659 560.199 137.705 560.787L139.315 561.247C140.696 561.631 141.923 562.116 141.923 563.42C141.923 564.852 140.543 565.798 138.727 565.798C137.168 565.798 135.787 565.108 135.659 563.625H134.023C134.176 565.773 135.915 567.23 138.727 567.23C141.744 567.23 143.457 565.568 143.457 563.446C143.457 560.991 141.131 560.199 139.776 559.841L138.446 559.483C137.474 559.227 135.915 558.716 135.915 557.31C135.915 556.057 137.065 555.136 138.804 555.136C140.389 555.136 141.591 555.891 141.744 557.182ZM149.976 567.205C151.97 567.205 153.427 566.207 153.888 564.724L152.43 564.315C152.047 565.338 151.158 565.849 149.976 565.849C148.205 565.849 146.984 564.705 146.914 562.602H154.041V561.963C154.041 558.307 151.868 557.054 149.822 557.054C147.163 557.054 145.399 559.151 145.399 562.168C145.399 565.185 147.138 567.205 149.976 567.205ZM146.914 561.298C147.016 559.771 148.096 558.409 149.822 558.409C151.459 558.409 152.507 559.636 152.507 561.298H146.914ZM159.225 567.23C160.938 567.23 161.833 566.31 162.14 565.67H162.216V567H163.725V560.531C163.725 557.412 161.347 557.054 160.094 557.054C158.611 557.054 156.924 557.565 156.157 559.355L157.589 559.866C157.921 559.151 158.707 558.384 160.145 558.384C161.532 558.384 162.216 559.119 162.216 560.378V560.429C162.216 561.158 161.475 561.094 159.685 561.324C157.863 561.56 155.876 561.963 155.876 564.213C155.876 566.131 157.358 567.23 159.225 567.23ZM159.455 565.875C158.253 565.875 157.384 565.338 157.384 564.29C157.384 563.139 158.432 562.781 159.608 562.628C160.248 562.551 161.961 562.372 162.216 562.065V563.446C162.216 564.673 161.245 565.875 159.455 565.875ZM166.478 567H167.987V560.787C167.987 559.457 169.035 558.486 170.467 558.486C170.87 558.486 171.285 558.562 171.387 558.588V557.054C171.215 557.041 170.819 557.028 170.595 557.028C169.419 557.028 168.396 557.693 168.038 558.665H167.936V557.182H166.478V567ZM176.865 567.205C179.039 567.205 180.471 565.875 180.726 564.136H179.218C178.936 565.21 178.042 565.849 176.865 565.849C175.076 565.849 173.925 564.366 173.925 562.091C173.925 559.866 175.101 558.409 176.865 558.409C178.195 558.409 178.988 559.227 179.218 560.122H180.726C180.471 558.281 178.911 557.054 176.84 557.054C174.181 557.054 172.417 559.151 172.417 562.142C172.417 565.082 174.104 567.205 176.865 567.205ZM184.44 561.094C184.44 559.381 185.533 558.409 187.022 558.409C188.441 558.409 189.298 559.304 189.298 560.864V567H190.806V560.761C190.806 558.237 189.464 557.054 187.457 557.054C185.91 557.054 185.028 557.7 184.568 558.716H184.44V553.909H182.931V567H184.44V561.094ZM198.833 553.909V567H200.316V557.054H200.444L204.535 567H205.967L210.058 557.054H210.186V567H211.669V553.909H209.776L205.328 564.776H205.174L200.725 553.909H198.833ZM218.759 567.205C220.753 567.205 222.211 566.207 222.671 564.724L221.213 564.315C220.83 565.338 219.941 565.849 218.759 565.849C216.988 565.849 215.767 564.705 215.697 562.602H222.824V561.963C222.824 558.307 220.651 557.054 218.605 557.054C215.946 557.054 214.182 559.151 214.182 562.168C214.182 565.185 215.921 567.205 218.759 567.205ZM215.697 561.298C215.799 559.771 216.88 558.409 218.605 558.409C220.242 558.409 221.29 559.636 221.29 561.298H215.697ZM225.119 567H226.627V560.864C226.627 559.425 227.676 558.409 228.852 558.409C229.996 558.409 230.795 559.157 230.795 560.276V567H232.329V560.608C232.329 559.342 233.122 558.409 234.502 558.409C235.576 558.409 236.497 558.978 236.497 560.429V567H238.005V560.429C238.005 558.121 236.765 557.054 235.014 557.054C233.608 557.054 232.578 557.7 232.074 558.716H231.971C231.485 557.668 230.629 557.054 229.338 557.054C228.059 557.054 227.113 557.668 226.704 558.716H226.576V557.182H225.119V567ZM240.968 567H242.425V565.491H242.604C242.937 566.028 243.576 567.205 245.468 567.205C247.923 567.205 249.636 565.236 249.636 562.116C249.636 559.023 247.923 557.054 245.442 557.054C243.525 557.054 242.937 558.23 242.604 558.741H242.477V553.909H240.968V567ZM242.451 562.091C242.451 559.892 243.423 558.409 245.263 558.409C247.181 558.409 248.127 560.02 248.127 562.091C248.127 564.188 247.156 565.849 245.263 565.849C243.448 565.849 242.451 564.315 242.451 562.091ZM256.06 567.205C258.054 567.205 259.511 566.207 259.972 564.724L258.514 564.315C258.131 565.338 257.242 565.849 256.06 565.849C254.289 565.849 253.068 564.705 252.998 562.602H260.125V561.963C260.125 558.307 257.952 557.054 255.906 557.054C253.247 557.054 251.483 559.151 251.483 562.168C251.483 565.185 253.222 567.205 256.06 567.205ZM252.998 561.298C253.1 559.771 254.18 558.409 255.906 558.409C257.543 558.409 258.591 559.636 258.591 561.298H252.998ZM262.42 567H263.928V560.787C263.928 559.457 264.977 558.486 266.408 558.486C266.811 558.486 267.227 558.562 267.329 558.588V557.054C267.156 557.041 266.76 557.028 266.536 557.028C265.36 557.028 264.337 557.693 263.979 558.665H263.877V557.182H262.42V567ZM276.072 559.381C275.599 557.987 274.537 557.054 272.594 557.054C270.523 557.054 268.989 558.23 268.989 559.892C268.989 561.247 269.795 562.155 271.597 562.577L273.233 562.96C274.224 563.19 274.691 563.663 274.691 564.341C274.691 565.185 273.796 565.875 272.39 565.875C271.156 565.875 270.383 565.344 270.114 564.29L268.682 564.648C269.034 566.316 270.408 567.205 272.415 567.205C274.697 567.205 276.251 565.958 276.251 564.264C276.251 562.896 275.394 562.033 273.643 561.605L272.185 561.247C271.022 560.96 270.498 560.57 270.498 559.815C270.498 558.972 271.393 558.358 272.594 558.358C273.911 558.358 274.454 559.087 274.716 559.764L276.072 559.381Z" fill="#373A3C"/>
<path d="M114.138 497.909V511H116.822V502.447H116.931L120.319 510.936H122.147L125.535 502.479H125.643V511H128.328V497.909H124.915L121.31 506.705H121.156L117.551 497.909H114.138ZM135.032 511.192C137.461 511.192 139.097 510.009 139.481 508.188L136.962 508.021C136.687 508.769 135.984 509.159 135.077 509.159C133.715 509.159 132.852 508.258 132.852 506.794V506.788H139.538V506.04C139.538 502.703 137.518 501.054 134.923 501.054C132.034 501.054 130.161 503.106 130.161 506.136C130.161 509.249 132.008 511.192 135.032 511.192ZM132.852 505.1C132.91 503.982 133.76 503.087 134.968 503.087C136.15 503.087 136.969 503.93 136.975 505.1H132.852ZM141.315 511H144.038V505.107C144.038 504.02 144.729 503.298 145.636 503.298C146.531 503.298 147.132 503.911 147.132 504.876V511H149.772V505.004C149.772 503.988 150.354 503.298 151.344 503.298C152.214 503.298 152.866 503.841 152.866 504.934V511H155.582V504.397C155.582 502.268 154.317 501.054 152.488 501.054C151.05 501.054 149.932 501.789 149.529 502.914H149.427C149.113 501.776 148.11 501.054 146.761 501.054C145.438 501.054 144.434 501.757 144.025 502.914H143.91V501.182H141.315V511ZM157.784 511H160.469V509.428H160.59C160.968 510.246 161.792 511.16 163.377 511.16C165.615 511.16 167.36 509.389 167.36 506.104C167.36 502.729 165.538 501.054 163.384 501.054C161.741 501.054 160.955 502.032 160.59 502.831H160.507V497.909H157.784V511ZM160.45 506.091C160.45 504.339 161.191 503.221 162.514 503.221C163.863 503.221 164.579 504.391 164.579 506.091C164.579 507.804 163.85 508.993 162.514 508.993C161.204 508.993 160.45 507.842 160.45 506.091ZM173.651 511.192C176.08 511.192 177.716 510.009 178.1 508.188L175.581 508.021C175.306 508.769 174.603 509.159 173.696 509.159C172.334 509.159 171.471 508.258 171.471 506.794V506.788H178.157V506.04C178.157 502.703 176.137 501.054 173.542 501.054C170.653 501.054 168.78 503.106 168.78 506.136C168.78 509.249 170.627 511.192 173.651 511.192ZM171.471 505.1C171.529 503.982 172.379 503.087 173.587 503.087C174.77 503.087 175.588 503.93 175.594 505.1H171.471ZM179.934 511H182.657V505.445C182.657 504.237 183.539 503.406 184.741 503.406C185.118 503.406 185.636 503.47 185.892 503.553V501.137C185.649 501.08 185.31 501.041 185.035 501.041C183.936 501.041 183.034 501.68 182.676 502.895H182.574V501.182H179.934V511ZM195.469 503.982C195.226 502.173 193.768 501.054 191.288 501.054C188.776 501.054 187.121 502.217 187.127 504.109C187.121 505.58 188.047 506.532 189.965 506.915L191.665 507.254C192.522 507.427 192.912 507.74 192.925 508.232C192.912 508.814 192.279 509.229 191.327 509.229C190.355 509.229 189.709 508.814 189.543 508.015L186.865 508.156C187.121 510.035 188.719 511.192 191.32 511.192C193.864 511.192 195.686 509.894 195.692 507.957C195.686 506.538 194.759 505.688 192.854 505.298L191.077 504.94C190.163 504.742 189.824 504.429 189.831 503.956C189.824 503.368 190.489 502.984 191.333 502.984C192.279 502.984 192.841 503.502 192.976 504.135L195.469 503.982Z" fill="#05345C"/>
<rect x="568" y="535" width="163" height="50" rx="3" fill="#12664F"/>
<path d="M631.138 567H633.906V561.592H639.23V559.31H633.906V556.191H639.805V553.909H631.138V567ZM641.616 567H644.339V557.182H641.616V567ZM642.984 555.916C643.796 555.916 644.46 555.296 644.46 554.536C644.46 553.781 643.796 553.161 642.984 553.161C642.178 553.161 641.514 553.781 641.514 554.536C641.514 555.296 642.178 555.916 642.984 555.916ZM649.243 561.324C649.25 560.058 650.004 559.317 651.103 559.317C652.196 559.317 652.855 560.033 652.848 561.234V567H655.571V560.749C655.571 558.46 654.229 557.054 652.184 557.054C650.726 557.054 649.672 557.77 649.23 558.914H649.115V557.182H646.52V567H649.243V561.324ZM661.335 567.16C662.921 567.16 663.745 566.246 664.122 565.428H664.237V567H666.922V553.909H664.205V558.831H664.122C663.758 558.032 662.972 557.054 661.329 557.054C659.175 557.054 657.353 558.729 657.353 562.104C657.353 565.389 659.098 567.16 661.335 567.16ZM662.198 564.993C660.862 564.993 660.134 563.804 660.134 562.091C660.134 560.391 660.85 559.221 662.198 559.221C663.521 559.221 664.263 560.339 664.263 562.091C664.263 563.842 663.509 564.993 662.198 564.993Z" fill="white"/>
<line x1="112" y1="686.5" x2="731" y2="686.5" stroke="#C4C4C4"/>
<line x1="113" y1="744.5" x2="732" y2="744.5" stroke="#C4C4C4"/>
<rect x="113.5" y="385.5" width="619" height="49" rx="2.5" fill="white" stroke="#C4C4C4"/>
<path d="M135.122 417L136.439 413.293H141.732L143.048 417H144.71L139.903 403.909H138.267L133.46 417H135.122ZM136.938 411.886L139.034 405.98H139.136L141.233 411.886H136.938ZM151.607 417H153.116V410.864C153.116 409.425 154.164 408.409 155.34 408.409C156.484 408.409 157.283 409.157 157.283 410.276V417H158.817V410.608C158.817 409.342 159.61 408.409 160.991 408.409C162.065 408.409 162.985 408.978 162.985 410.429V417H164.494V410.429C164.494 408.121 163.254 407.054 161.502 407.054C160.096 407.054 159.067 407.7 158.562 408.716H158.46C157.974 407.668 157.117 407.054 155.826 407.054C154.548 407.054 153.602 407.668 153.192 408.716H153.065V407.182H151.607V417ZM171.24 417.205C173.9 417.205 175.689 415.185 175.689 412.142C175.689 409.074 173.9 407.054 171.24 407.054C168.581 407.054 166.792 409.074 166.792 412.142C166.792 415.185 168.581 417.205 171.24 417.205ZM171.24 415.849C169.221 415.849 168.3 414.111 168.3 412.142C168.3 410.173 169.221 408.409 171.24 408.409C173.26 408.409 174.181 410.173 174.181 412.142C174.181 414.111 173.26 415.849 171.24 415.849ZM177.992 417H179.501V410.787C179.501 409.457 180.549 408.486 181.981 408.486C182.383 408.486 182.799 408.562 182.901 408.588V407.054C182.729 407.041 182.332 407.028 182.108 407.028C180.932 407.028 179.91 407.693 179.552 408.665H179.449V407.182H177.992V417ZM188.507 417.205C190.501 417.205 191.959 416.207 192.419 414.724L190.961 414.315C190.578 415.338 189.689 415.849 188.507 415.849C186.736 415.849 185.515 414.705 185.445 412.602H192.572V411.963C192.572 408.307 190.399 407.054 188.354 407.054C185.694 407.054 183.93 409.151 183.93 412.168C183.93 415.185 185.669 417.205 188.507 417.205ZM185.445 411.298C185.547 409.771 186.628 408.409 188.354 408.409C189.99 408.409 191.038 409.636 191.038 411.298H185.445ZM206.117 412.986C206.117 414.827 204.711 415.67 203.586 415.67C202.333 415.67 201.438 414.75 201.438 413.318V407.182H199.93V413.42C199.93 415.926 201.259 417.128 203.1 417.128C204.583 417.128 205.555 416.335 206.015 415.338H206.117V417H207.626V407.182H206.117V412.986ZM217.343 409.381C216.87 407.987 215.809 407.054 213.866 407.054C211.795 407.054 210.261 408.23 210.261 409.892C210.261 411.247 211.066 412.155 212.869 412.577L214.505 412.96C215.496 413.19 215.962 413.663 215.962 414.341C215.962 415.185 215.067 415.875 213.661 415.875C212.428 415.875 211.654 415.344 211.386 414.29L209.954 414.648C210.305 416.316 211.68 417.205 213.687 417.205C215.969 417.205 217.522 415.958 217.522 414.264C217.522 412.896 216.665 412.033 214.914 411.605L213.457 411.247C212.293 410.96 211.769 410.57 211.769 409.815C211.769 408.972 212.664 408.358 213.866 408.358C215.183 408.358 215.726 409.087 215.988 409.764L217.343 409.381ZM223.909 417.205C225.904 417.205 227.361 416.207 227.821 414.724L226.364 414.315C225.98 415.338 225.092 415.849 223.909 415.849C222.139 415.849 220.918 414.705 220.847 412.602H227.975V411.963C227.975 408.307 225.801 407.054 223.756 407.054C221.097 407.054 219.333 409.151 219.333 412.168C219.333 415.185 221.071 417.205 223.909 417.205ZM220.847 411.298C220.95 409.771 222.03 408.409 223.756 408.409C225.392 408.409 226.441 409.636 226.441 411.298H220.847ZM230.269 417H231.778V410.787C231.778 409.457 232.826 408.486 234.258 408.486C234.661 408.486 235.076 408.562 235.178 408.588V407.054C235.006 407.041 234.61 407.028 234.386 407.028C233.21 407.028 232.187 407.693 231.829 408.665H231.727V407.182H230.269V417ZM246.401 407.182H244.202V406.185C244.202 405.213 244.612 404.702 245.609 404.702C246.043 404.702 246.299 404.804 246.452 404.855L246.887 403.551C246.657 403.449 246.197 403.295 245.455 403.295C244.049 403.295 242.694 404.139 242.694 405.827V407.182H241.109V408.46H242.694V417H244.202V408.46H246.401V407.182ZM248.515 417H250.024V410.787C250.024 409.457 251.072 408.486 252.504 408.486C252.907 408.486 253.322 408.562 253.425 408.588V407.054C253.252 407.041 252.856 407.028 252.632 407.028C251.456 407.028 250.433 407.693 250.075 408.665H249.973V407.182H248.515V417ZM255.213 417H256.721V407.182H255.213V417ZM255.98 405.545C256.568 405.545 257.054 405.085 257.054 404.523C257.054 403.96 256.568 403.5 255.98 403.5C255.392 403.5 254.906 403.96 254.906 404.523C254.906 405.085 255.392 405.545 255.98 405.545ZM263.601 417.205C265.595 417.205 267.052 416.207 267.513 414.724L266.055 414.315C265.672 415.338 264.783 415.849 263.601 415.849C261.83 415.849 260.609 414.705 260.539 412.602H267.666V411.963C267.666 408.307 265.493 407.054 263.447 407.054C260.788 407.054 259.024 409.151 259.024 412.168C259.024 415.185 260.763 417.205 263.601 417.205ZM260.539 411.298C260.641 409.771 261.721 408.409 263.447 408.409C265.084 408.409 266.132 409.636 266.132 411.298H260.539ZM271.469 411.094C271.469 409.381 272.53 408.409 273.975 408.409C275.375 408.409 276.225 409.323 276.225 410.864V417H277.733V410.761C277.733 408.256 276.398 407.054 274.41 407.054C272.927 407.054 272.006 407.719 271.546 408.716H271.418V407.182H269.961V417H271.469V411.094ZM284.197 417.205C286.089 417.205 286.729 416.028 287.061 415.491H287.24V417H288.697V403.909H287.189V408.741H287.061C286.729 408.23 286.141 407.054 284.223 407.054C281.743 407.054 280.03 409.023 280.03 412.116C280.03 415.236 281.743 417.205 284.197 417.205ZM284.402 415.849C282.51 415.849 281.538 414.188 281.538 412.091C281.538 410.02 282.484 408.409 284.402 408.409C286.243 408.409 287.214 409.892 287.214 412.091C287.214 414.315 286.217 415.849 284.402 415.849ZM293.178 403.909H291.67V417H293.178V403.909ZM296.913 420.682C298.274 420.682 299.233 419.96 299.802 418.432L303.982 407.207L302.333 407.182L299.623 415.006H299.521L296.811 407.182H295.174L298.805 417.051L298.524 417.818C297.974 419.314 297.296 419.455 296.197 419.173L295.813 420.503C295.967 420.58 296.401 420.682 296.913 420.682ZM311.041 417H312.549V407.182H311.041V417ZM311.808 405.545C312.396 405.545 312.882 405.085 312.882 404.523C312.882 403.96 312.396 403.5 311.808 403.5C311.22 403.5 310.734 403.96 310.734 404.523C310.734 405.085 311.22 405.545 311.808 405.545ZM316.821 411.094C316.821 409.381 317.882 408.409 319.327 408.409C320.726 408.409 321.577 409.323 321.577 410.864V417H323.085V410.761C323.085 408.256 321.749 407.054 319.761 407.054C318.278 407.054 317.358 407.719 316.898 408.716H316.77V407.182H315.312V417H316.821V411.094ZM330.112 407.182H328.015V404.83H326.506V407.182H325.023V408.46H326.506V414.597C326.506 416.31 327.887 417.128 329.165 417.128C329.728 417.128 330.086 417.026 330.29 416.949L329.984 415.594C329.856 415.619 329.651 415.67 329.319 415.67C328.654 415.67 328.015 415.466 328.015 414.188V408.46H330.112V407.182ZM336.392 417.205C338.386 417.205 339.843 416.207 340.304 414.724L338.846 414.315C338.463 415.338 337.574 415.849 336.392 415.849C334.621 415.849 333.4 414.705 333.33 412.602H340.457V411.963C340.457 408.307 338.284 407.054 336.238 407.054C333.579 407.054 331.815 409.151 331.815 412.168C331.815 415.185 333.554 417.205 336.392 417.205ZM333.33 411.298C333.432 409.771 334.512 408.409 336.238 408.409C337.875 408.409 338.923 409.636 338.923 411.298H333.33ZM342.752 417H344.26V410.787C344.26 409.457 345.309 408.486 346.74 408.486C347.143 408.486 347.559 408.562 347.661 408.588V407.054C347.488 407.041 347.092 407.028 346.868 407.028C345.692 407.028 344.669 407.693 344.311 408.665H344.209V407.182H342.752V417ZM354.436 407.182H352.238V406.185C352.238 405.213 352.647 404.702 353.644 404.702C354.078 404.702 354.334 404.804 354.488 404.855L354.922 403.551C354.692 403.449 354.232 403.295 353.49 403.295C352.084 403.295 350.729 404.139 350.729 405.827V407.182H349.144V408.46H350.729V417H352.238V408.46H354.436V407.182ZM359.159 417.23C360.872 417.23 361.767 416.31 362.073 415.67H362.15V417H363.659V410.531C363.659 407.412 361.281 407.054 360.028 407.054C358.545 407.054 356.857 407.565 356.09 409.355L357.522 409.866C357.855 409.151 358.641 408.384 360.079 408.384C361.466 408.384 362.15 409.119 362.15 410.378V410.429C362.15 411.158 361.409 411.094 359.619 411.324C357.797 411.56 355.809 411.963 355.809 414.213C355.809 416.131 357.292 417.23 359.159 417.23ZM359.389 415.875C358.187 415.875 357.318 415.338 357.318 414.29C357.318 413.139 358.366 412.781 359.542 412.628C360.181 412.551 361.894 412.372 362.15 412.065V413.446C362.15 414.673 361.178 415.875 359.389 415.875ZM370.401 417.205C372.574 417.205 374.006 415.875 374.261 414.136H372.753C372.472 415.21 371.577 415.849 370.401 415.849C368.611 415.849 367.46 414.366 367.46 412.091C367.46 409.866 368.636 408.409 370.401 408.409C371.73 408.409 372.523 409.227 372.753 410.122H374.261C374.006 408.281 372.446 407.054 370.375 407.054C367.716 407.054 365.952 409.151 365.952 412.142C365.952 415.082 367.639 417.205 370.401 417.205ZM380.583 417.205C382.577 417.205 384.035 416.207 384.495 414.724L383.038 414.315C382.654 415.338 381.766 415.849 380.583 415.849C378.812 415.849 377.592 414.705 377.521 412.602H384.648V411.963C384.648 408.307 382.475 407.054 380.43 407.054C377.771 407.054 376.006 409.151 376.006 412.168C376.006 415.185 377.745 417.205 380.583 417.205ZM377.521 411.298C377.624 409.771 378.704 408.409 380.43 408.409C382.066 408.409 383.114 409.636 383.114 411.298H377.521ZM396.276 407.182H394.179V404.83H392.67V407.182H391.188V408.46H392.67V414.597C392.67 416.31 394.051 417.128 395.33 417.128C395.892 417.128 396.25 417.026 396.455 416.949L396.148 415.594C396.02 415.619 395.815 415.67 395.483 415.67C394.818 415.67 394.179 415.466 394.179 414.188V408.46H396.276V407.182ZM402.428 417.205C405.087 417.205 406.877 415.185 406.877 412.142C406.877 409.074 405.087 407.054 402.428 407.054C399.769 407.054 397.979 409.074 397.979 412.142C397.979 415.185 399.769 417.205 402.428 417.205ZM402.428 415.849C400.408 415.849 399.488 414.111 399.488 412.142C399.488 410.173 400.408 408.409 402.428 408.409C404.448 408.409 405.368 410.173 405.368 412.142C405.368 414.111 404.448 415.849 402.428 415.849ZM414.242 417H415.751V410.787C415.751 409.457 416.799 408.486 418.231 408.486C418.633 408.486 419.049 408.562 419.151 408.588V407.054C418.979 407.041 418.582 407.028 418.358 407.028C417.182 407.028 416.16 407.693 415.802 408.665H415.699V407.182H414.242V417ZM424.757 417.205C426.751 417.205 428.209 416.207 428.669 414.724L427.211 414.315C426.828 415.338 425.939 415.849 424.757 415.849C422.986 415.849 421.765 414.705 421.695 412.602H428.822V411.963C428.822 408.307 426.649 407.054 424.604 407.054C421.944 407.054 420.18 409.151 420.18 412.168C420.18 415.185 421.919 417.205 424.757 417.205ZM421.695 411.298C421.797 409.771 422.878 408.409 424.604 408.409C426.24 408.409 427.288 409.636 427.288 411.298H421.695ZM431.117 420.682H432.626V415.491H432.753C433.086 416.028 433.725 417.205 435.617 417.205C438.072 417.205 439.785 415.236 439.785 412.116C439.785 409.023 438.072 407.054 435.591 407.054C433.674 407.054 433.086 408.23 432.753 408.741H432.574V407.182H431.117V420.682ZM432.6 412.091C432.6 409.892 433.572 408.409 435.412 408.409C437.33 408.409 438.276 410.02 438.276 412.091C438.276 414.188 437.305 415.849 435.412 415.849C433.597 415.849 432.6 414.315 432.6 412.091ZM443.594 403.909H442.086V417H443.594V403.909ZM449.246 417.23C450.96 417.23 451.854 416.31 452.161 415.67H452.238V417H453.746V410.531C453.746 407.412 451.369 407.054 450.116 407.054C448.633 407.054 446.945 407.565 446.178 409.355L447.61 409.866C447.942 409.151 448.729 408.384 450.167 408.384C451.554 408.384 452.238 409.119 452.238 410.378V410.429C452.238 411.158 451.496 411.094 449.707 411.324C447.885 411.56 445.897 411.963 445.897 414.213C445.897 416.131 447.38 417.23 449.246 417.23ZM449.477 415.875C448.275 415.875 447.406 415.338 447.406 414.29C447.406 413.139 448.454 412.781 449.63 412.628C450.269 412.551 451.982 412.372 452.238 412.065V413.446C452.238 414.673 451.266 415.875 449.477 415.875ZM460.488 417.205C462.662 417.205 464.094 415.875 464.349 414.136H462.841C462.559 415.21 461.665 415.849 460.488 415.849C458.699 415.849 457.548 414.366 457.548 412.091C457.548 409.866 458.724 408.409 460.488 408.409C461.818 408.409 462.611 409.227 462.841 410.122H464.349C464.094 408.281 462.534 407.054 460.463 407.054C457.804 407.054 456.04 409.151 456.04 412.142C456.04 415.082 457.727 417.205 460.488 417.205ZM470.671 417.205C472.665 417.205 474.123 416.207 474.583 414.724L473.126 414.315C472.742 415.338 471.854 415.849 470.671 415.849C468.9 415.849 467.68 414.705 467.609 412.602H474.736V411.963C474.736 408.307 472.563 407.054 470.518 407.054C467.858 407.054 466.094 409.151 466.094 412.168C466.094 415.185 467.833 417.205 470.671 417.205ZM467.609 411.298C467.711 409.771 468.792 408.409 470.518 408.409C472.154 408.409 473.202 409.636 473.202 411.298H467.609ZM489.457 407.182H490.991C490.921 405.207 489.099 403.73 486.568 403.73C484.062 403.73 482.094 405.188 482.094 407.386C482.094 409.151 483.372 410.199 485.417 410.787L487.028 411.247C488.409 411.631 489.636 412.116 489.636 413.42C489.636 414.852 488.256 415.798 486.44 415.798C484.881 415.798 483.5 415.108 483.372 413.625H481.736C481.889 415.773 483.628 417.23 486.44 417.23C489.457 417.23 491.17 415.568 491.17 413.446C491.17 410.991 488.844 410.199 487.488 409.841L486.159 409.483C485.187 409.227 483.628 408.716 483.628 407.31C483.628 406.057 484.778 405.136 486.517 405.136C488.102 405.136 489.304 405.891 489.457 407.182ZM493.572 420.682H495.081V415.491H495.208C495.541 416.028 496.18 417.205 498.072 417.205C500.527 417.205 502.24 415.236 502.24 412.116C502.24 409.023 500.527 407.054 498.047 407.054C496.129 407.054 495.541 408.23 495.208 408.741H495.029V407.182H493.572V420.682ZM495.055 412.091C495.055 409.892 496.027 408.409 497.868 408.409C499.785 408.409 500.731 410.02 500.731 412.091C500.731 414.188 499.76 415.849 497.868 415.849C496.052 415.849 495.055 414.315 495.055 412.091ZM508.529 417.205C511.189 417.205 512.978 415.185 512.978 412.142C512.978 409.074 511.189 407.054 508.529 407.054C505.87 407.054 504.081 409.074 504.081 412.142C504.081 415.185 505.87 417.205 508.529 417.205ZM508.529 415.849C506.51 415.849 505.589 414.111 505.589 412.142C505.589 410.173 506.51 408.409 508.529 408.409C510.549 408.409 511.47 410.173 511.47 412.142C511.47 414.111 510.549 415.849 508.529 415.849ZM519.551 407.182H517.454V404.83H515.946V407.182H514.463V408.46H515.946V414.597C515.946 416.31 517.327 417.128 518.605 417.128C519.167 417.128 519.525 417.026 519.73 416.949L519.423 415.594C519.295 415.619 519.091 415.67 518.758 415.67C518.094 415.67 517.454 415.466 517.454 414.188V408.46H519.551V407.182ZM521.82 417H523.329V407.182H521.82V417ZM522.587 405.545C523.175 405.545 523.661 405.085 523.661 404.523C523.661 403.96 523.175 403.5 522.587 403.5C521.999 403.5 521.513 403.96 521.513 404.523C521.513 405.085 521.999 405.545 522.587 405.545ZM530.464 407.182H528.265V406.185C528.265 405.213 528.674 404.702 529.671 404.702C530.106 404.702 530.362 404.804 530.515 404.855L530.95 403.551C530.719 403.449 530.259 403.295 529.518 403.295C528.112 403.295 526.756 404.139 526.756 405.827V407.182H525.171V408.46H526.756V417H528.265V408.46H530.464V407.182ZM533.55 420.682C534.911 420.682 535.87 419.96 536.439 418.432L540.619 407.207L538.97 407.182L536.26 415.006H536.157L533.447 407.182H531.811L535.442 417.051L535.16 417.818C534.611 419.314 533.933 419.455 532.834 419.173L532.45 420.503C532.604 420.58 533.038 420.682 533.55 420.682ZM551.666 417.205C554.325 417.205 556.115 415.185 556.115 412.142C556.115 409.074 554.325 407.054 551.666 407.054C549.007 407.054 547.217 409.074 547.217 412.142C547.217 415.185 549.007 417.205 551.666 417.205ZM551.666 415.849C549.646 415.849 548.726 414.111 548.726 412.142C548.726 410.173 549.646 408.409 551.666 408.409C553.686 408.409 554.607 410.173 554.607 412.142C554.607 414.111 553.686 415.849 551.666 415.849ZM559.926 411.094C559.926 409.381 560.987 408.409 562.432 408.409C563.832 408.409 564.682 409.323 564.682 410.864V417H566.191V410.761C566.191 408.256 564.855 407.054 562.867 407.054C561.384 407.054 560.463 407.719 560.003 408.716H559.875V407.182H558.418V417H559.926V411.094ZM578.279 407.182H576.183V404.83H574.674V407.182H573.191V408.46H574.674V414.597C574.674 416.31 576.055 417.128 577.333 417.128C577.896 417.128 578.254 417.026 578.458 416.949L578.152 415.594C578.024 415.619 577.819 415.67 577.487 415.67C576.822 415.67 576.183 415.466 576.183 414.188V408.46H578.279V407.182ZM582.268 411.094C582.268 409.381 583.361 408.409 584.85 408.409C586.27 408.409 587.126 409.304 587.126 410.864V417H588.635V410.761C588.635 408.237 587.292 407.054 585.285 407.054C583.738 407.054 582.856 407.7 582.396 408.716H582.268V403.909H580.76V417H582.268V411.094ZM595.511 417.205C597.505 417.205 598.963 416.207 599.423 414.724L597.965 414.315C597.582 415.338 596.693 415.849 595.511 415.849C593.74 415.849 592.519 414.705 592.449 412.602H599.576V411.963C599.576 408.307 597.403 407.054 595.357 407.054C592.698 407.054 590.934 409.151 590.934 412.168C590.934 415.185 592.673 417.205 595.511 417.205ZM592.449 411.298C592.551 409.771 593.632 408.409 595.357 408.409C596.994 408.409 598.042 409.636 598.042 411.298H592.449ZM610.641 417.205C612.533 417.205 613.172 416.028 613.504 415.491H613.683V417H615.141V403.909H613.632V408.741H613.504C613.172 408.23 612.584 407.054 610.666 407.054C608.186 407.054 606.473 409.023 606.473 412.116C606.473 415.236 608.186 417.205 610.641 417.205ZM610.845 415.849C608.953 415.849 607.982 414.188 607.982 412.091C607.982 410.02 608.928 408.409 610.845 408.409C612.686 408.409 613.658 409.892 613.658 412.091C613.658 414.315 612.661 415.849 610.845 415.849ZM622.23 417.205C624.224 417.205 625.681 416.207 626.142 414.724L624.684 414.315C624.301 415.338 623.412 415.849 622.23 415.849C620.459 415.849 619.238 414.705 619.168 412.602H626.295V411.963C626.295 408.307 624.122 407.054 622.076 407.054C619.417 407.054 617.653 409.151 617.653 412.168C617.653 415.185 619.392 417.205 622.23 417.205ZM619.168 411.298C619.27 409.771 620.35 408.409 622.076 408.409C623.713 408.409 624.761 409.636 624.761 411.298H619.168ZM635.544 409.381C635.071 407.987 634.01 407.054 632.067 407.054C629.996 407.054 628.462 408.23 628.462 409.892C628.462 411.247 629.267 412.155 631.07 412.577L632.706 412.96C633.697 413.19 634.164 413.663 634.164 414.341C634.164 415.185 633.269 415.875 631.862 415.875C630.629 415.875 629.855 415.344 629.587 414.29L628.155 414.648C628.507 416.316 629.881 417.205 631.888 417.205C634.17 417.205 635.723 415.958 635.723 414.264C635.723 412.896 634.867 412.033 633.115 411.605L631.658 411.247C630.494 410.96 629.97 410.57 629.97 409.815C629.97 408.972 630.865 408.358 632.067 408.358C633.384 408.358 633.927 409.087 634.189 409.764L635.544 409.381ZM637.994 417H639.502V413.325L640.557 412.347L644.233 417H646.15L641.695 411.375L645.843 407.182H643.977L639.681 411.554H639.502V403.909H637.994V417ZM652.055 407.182H649.958V404.83H648.45V407.182H646.967V408.46H648.45V414.597C648.45 416.31 649.83 417.128 651.109 417.128C651.671 417.128 652.029 417.026 652.234 416.949L651.927 415.594C651.799 415.619 651.595 415.67 651.262 415.67C650.597 415.67 649.958 415.466 649.958 414.188V408.46H652.055V407.182ZM658.207 417.205C660.866 417.205 662.656 415.185 662.656 412.142C662.656 409.074 660.866 407.054 658.207 407.054C655.548 407.054 653.758 409.074 653.758 412.142C653.758 415.185 655.548 417.205 658.207 417.205ZM658.207 415.849C656.187 415.849 655.267 414.111 655.267 412.142C655.267 410.173 656.187 408.409 658.207 408.409C660.227 408.409 661.148 410.173 661.148 412.142C661.148 414.111 660.227 415.849 658.207 415.849ZM664.959 420.682H666.467V415.491H666.595C666.928 416.028 667.567 417.205 669.459 417.205C671.913 417.205 673.626 415.236 673.626 412.116C673.626 409.023 671.913 407.054 669.433 407.054C667.516 407.054 666.928 408.23 666.595 408.741H666.416V407.182H664.959V420.682ZM666.442 412.091C666.442 409.892 667.413 408.409 669.254 408.409C671.172 408.409 672.118 410.02 672.118 412.091C672.118 414.188 671.146 415.849 669.254 415.849C667.439 415.849 666.442 414.315 666.442 412.091ZM677.027 417.102C677.66 417.102 678.178 416.585 678.178 415.952C678.178 415.319 677.66 414.801 677.027 414.801C676.394 414.801 675.876 415.319 675.876 415.952C675.876 416.585 676.394 417.102 677.027 417.102Z" fill="#373A3C"/>
<path d="M118.778 361C122.767 361 125.183 358.533 125.183 354.442C125.183 350.364 122.767 347.909 118.817 347.909H114.138V361H118.778ZM116.906 358.629V350.281H118.67C121.124 350.281 122.422 351.533 122.422 354.442C122.422 357.363 121.124 358.629 118.663 358.629H116.906ZM131.657 361.192C134.086 361.192 135.722 360.009 136.106 358.188L133.587 358.021C133.312 358.769 132.609 359.159 131.702 359.159C130.34 359.159 129.477 358.258 129.477 356.794V356.788H136.163V356.04C136.163 352.703 134.143 351.054 131.548 351.054C128.659 351.054 126.786 353.106 126.786 356.136C126.786 359.249 128.633 361.192 131.657 361.192ZM129.477 355.1C129.535 353.982 130.385 353.087 131.593 353.087C132.775 353.087 133.594 353.93 133.6 355.1H129.477ZM146.109 353.982C145.866 352.173 144.409 351.054 141.929 351.054C139.417 351.054 137.761 352.217 137.768 354.109C137.761 355.58 138.688 356.532 140.606 356.915L142.306 357.254C143.162 357.427 143.552 357.74 143.565 358.232C143.552 358.814 142.92 359.229 141.967 359.229C140.996 359.229 140.35 358.814 140.184 358.015L137.506 358.156C137.761 360.035 139.359 361.192 141.961 361.192C144.505 361.192 146.327 359.894 146.333 357.957C146.327 356.538 145.4 355.688 143.495 355.298L141.718 354.94C140.804 354.742 140.465 354.429 140.471 353.956C140.465 353.368 141.13 352.984 141.974 352.984C142.92 352.984 143.482 353.502 143.616 354.135L146.109 353.982ZM152.484 361.192C155.098 361.192 156.741 359.658 156.869 357.401H154.299C154.139 358.45 153.449 359.038 152.516 359.038C151.244 359.038 150.419 357.97 150.419 356.091C150.419 354.237 151.25 353.176 152.516 353.176C153.513 353.176 154.152 353.835 154.299 354.812H156.869C156.754 352.543 155.034 351.054 152.471 351.054C149.492 351.054 147.651 353.119 147.651 356.129C147.651 359.114 149.46 361.192 152.484 361.192ZM158.612 361H161.335V355.445C161.335 354.237 162.217 353.406 163.419 353.406C163.796 353.406 164.314 353.47 164.569 353.553V351.137C164.327 351.08 163.988 351.041 163.713 351.041C162.613 351.041 161.712 351.68 161.354 352.895H161.252V351.182H158.612V361ZM165.977 361H168.7V351.182H165.977V361ZM167.345 349.916C168.157 349.916 168.822 349.296 168.822 348.536C168.822 347.781 168.157 347.161 167.345 347.161C166.54 347.161 165.875 347.781 165.875 348.536C165.875 349.296 166.54 349.916 167.345 349.916ZM170.882 364.682H173.605V359.428H173.688C174.065 360.246 174.889 361.16 176.475 361.16C178.712 361.16 180.457 359.389 180.457 356.104C180.457 352.729 178.635 351.054 176.481 351.054C174.838 351.054 174.052 352.032 173.688 352.831H173.566V351.182H170.882V364.682ZM173.547 356.091C173.547 354.339 174.289 353.221 175.612 353.221C176.96 353.221 177.676 354.391 177.676 356.091C177.676 357.804 176.948 358.993 175.612 358.993C174.301 358.993 173.547 357.842 173.547 356.091ZM187.494 351.182H185.647V348.83H182.924V351.182H181.582V353.227H182.924V358.341C182.911 360.265 184.222 361.217 186.197 361.134C186.9 361.109 187.399 360.968 187.673 360.879L187.245 358.852C187.111 358.878 186.823 358.942 186.568 358.942C186.024 358.942 185.647 358.737 185.647 357.983V353.227H187.494V351.182ZM189.268 361H191.991V351.182H189.268V361ZM190.636 349.916C191.448 349.916 192.113 349.296 192.113 348.536C192.113 347.781 191.448 347.161 190.636 347.161C189.831 347.161 189.166 347.781 189.166 348.536C189.166 349.296 189.831 349.916 190.636 349.916ZM198.609 361.192C201.587 361.192 203.441 359.153 203.441 356.129C203.441 353.087 201.587 351.054 198.609 351.054C195.63 351.054 193.776 353.087 193.776 356.129C193.776 359.153 195.63 361.192 198.609 361.192ZM198.621 359.082C197.247 359.082 196.544 357.823 196.544 356.11C196.544 354.397 197.247 353.131 198.621 353.131C199.97 353.131 200.673 354.397 200.673 356.11C200.673 357.823 199.97 359.082 198.621 359.082ZM207.935 355.324C207.941 354.058 208.695 353.317 209.795 353.317C210.888 353.317 211.546 354.033 211.54 355.234V361H214.263V354.749C214.263 352.46 212.92 351.054 210.875 351.054C209.418 351.054 208.363 351.77 207.922 352.914H207.807V351.182H205.212V361H207.935V355.324Z" fill="#05345C"/>
<path d="M114.276 124H119.811V115.511H124.464C130.486 115.511 133.989 111.919 133.989 106.69C133.989 101.487 130.55 97.8182 124.605 97.8182H114.276V124ZM119.811 111.075V102.344H123.544C126.74 102.344 128.287 104.082 128.287 106.69C128.287 109.286 126.74 111.075 123.57 111.075H119.811ZM137.482 124H142.928V112.891C142.928 110.474 144.692 108.812 147.096 108.812C147.85 108.812 148.885 108.94 149.397 109.107V104.274C148.911 104.159 148.233 104.082 147.684 104.082C145.485 104.082 143.682 105.361 142.966 107.79H142.762V104.364H137.482V124ZM160.17 124.384C166.128 124.384 169.835 120.305 169.835 114.259C169.835 108.173 166.128 104.108 160.17 104.108C154.213 104.108 150.506 108.173 150.506 114.259C150.506 120.305 154.213 124.384 160.17 124.384ZM160.196 120.165C157.447 120.165 156.041 117.646 156.041 114.22C156.041 110.794 157.447 108.263 160.196 108.263C162.893 108.263 164.3 110.794 164.3 114.22C164.3 117.646 162.893 120.165 160.196 120.165ZM173.376 104.364V124.882C173.376 126.365 172.75 127.107 170.999 127.107C170.768 127.107 170.564 127.107 170.283 127.081V131.338C170.679 131.351 170.999 131.364 171.382 131.364C176.01 131.364 178.822 129.523 178.822 124.972V104.364H173.376ZM176.087 101.832C177.71 101.832 179.04 100.592 179.04 99.071C179.04 97.5625 177.71 96.3224 176.087 96.3224C174.476 96.3224 173.146 97.5625 173.146 99.071C173.146 100.592 174.476 101.832 176.087 101.832ZM192.134 124.384C196.992 124.384 200.265 122.018 201.032 118.375L195.995 118.043C195.445 119.538 194.039 120.318 192.223 120.318C189.5 120.318 187.775 118.516 187.775 115.588V115.575H201.147V114.08C201.147 107.406 197.107 104.108 191.917 104.108C186.138 104.108 182.392 108.212 182.392 114.271C182.392 120.497 186.087 124.384 192.134 124.384ZM187.775 112.2C187.89 109.963 189.59 108.173 192.006 108.173C194.371 108.173 196.007 109.861 196.02 112.2H187.775ZM213.573 124.384C218.801 124.384 222.087 121.315 222.343 116.803H217.203C216.884 118.899 215.503 120.075 213.637 120.075C211.093 120.075 209.444 117.94 209.444 114.182C209.444 110.474 211.105 108.352 213.637 108.352C215.631 108.352 216.909 109.669 217.203 111.625H222.343C222.113 107.087 218.674 104.108 213.547 104.108C207.59 104.108 203.908 108.237 203.908 114.259C203.908 120.229 207.526 124.384 213.573 124.384ZM236.274 104.364H232.58V99.6591H227.134V104.364H224.449V108.455H227.134V118.682C227.108 122.53 229.729 124.435 233.679 124.268C235.085 124.217 236.082 123.936 236.632 123.757L235.776 119.705C235.507 119.756 234.932 119.884 234.42 119.884C233.334 119.884 232.58 119.474 232.58 117.966V108.455H236.274V104.364ZM248.256 124H253.792V114.719H257.831L262.792 124H268.902L263.341 113.824C266.32 112.545 267.969 109.95 267.969 106.371C267.969 101.168 264.53 97.8182 258.586 97.8182H248.256V124ZM253.792 110.27V102.344H257.525C260.721 102.344 262.267 103.763 262.267 106.371C262.267 108.966 260.721 110.27 257.55 110.27H253.792ZM280.411 124.384C285.269 124.384 288.542 122.018 289.309 118.375L284.272 118.043C283.722 119.538 282.316 120.318 280.501 120.318C277.778 120.318 276.052 118.516 276.052 115.588V115.575H289.424V114.08C289.424 107.406 285.384 104.108 280.194 104.108C274.415 104.108 270.67 108.212 270.67 114.271C270.67 120.497 274.364 124.384 280.411 124.384ZM276.052 112.2C276.167 109.963 277.867 108.173 280.283 108.173C282.648 108.173 284.285 109.861 284.298 112.2H276.052ZM301.825 131.773C307.437 131.773 311.425 129.216 311.425 124.192V104.364H306.018V107.662H305.813C305.085 106.064 303.487 104.108 300.201 104.108C295.893 104.108 292.249 107.457 292.249 114.143C292.249 120.676 295.79 123.719 300.214 123.719C303.346 123.719 305.097 122.146 305.813 120.523H306.043V124.115C306.043 126.812 304.317 127.861 301.952 127.861C299.549 127.861 298.335 126.812 297.887 125.624L292.85 126.301C293.502 129.395 296.532 131.773 301.825 131.773ZM301.94 119.628C299.268 119.628 297.81 117.506 297.81 114.118C297.81 110.781 299.242 108.442 301.94 108.442C304.586 108.442 306.069 110.679 306.069 114.118C306.069 117.582 304.56 119.628 301.94 119.628ZM315.759 124H321.205V104.364H315.759V124ZM318.495 101.832C320.119 101.832 321.448 100.592 321.448 99.071C321.448 97.5625 320.119 96.3224 318.495 96.3224C316.884 96.3224 315.555 97.5625 315.555 99.071C315.555 100.592 316.884 101.832 318.495 101.832ZM341.906 109.963C341.42 106.345 338.505 104.108 333.545 104.108C328.521 104.108 325.21 106.435 325.223 110.219C325.21 113.159 327.064 115.064 330.899 115.831L334.299 116.509C336.012 116.854 336.792 117.48 336.818 118.464C336.792 119.628 335.527 120.459 333.622 120.459C331.679 120.459 330.387 119.628 330.055 118.03L324.699 118.311C325.21 122.07 328.406 124.384 333.609 124.384C338.697 124.384 342.341 121.788 342.353 117.915C342.341 115.077 340.487 113.376 336.677 112.597L333.123 111.881C331.295 111.484 330.618 110.858 330.63 109.912C330.618 108.736 331.947 107.969 333.635 107.969C335.527 107.969 336.652 109.004 336.92 110.27L341.906 109.963ZM356.227 104.364H352.533V99.6591H347.087V104.364H344.402V108.455H347.087V118.682C347.061 122.53 349.682 124.435 353.632 124.268C355.038 124.217 356.036 123.936 356.585 123.757L355.729 119.705C355.46 119.756 354.885 119.884 354.374 119.884C353.287 119.884 352.533 119.474 352.533 117.966V108.455H356.227V104.364ZM359.775 124H365.221V112.891C365.221 110.474 366.985 108.812 369.388 108.812C370.143 108.812 371.178 108.94 371.69 109.107V104.274C371.204 104.159 370.526 104.082 369.977 104.082C367.778 104.082 365.975 105.361 365.259 107.79H365.055V104.364H359.775V124ZM379.542 124.371C382.444 124.371 384.324 123.105 385.282 121.277H385.436V124H390.6V110.756C390.6 106.077 386.637 104.108 382.265 104.108C377.561 104.108 374.467 106.358 373.713 109.938L378.75 110.347C379.12 109.043 380.284 108.084 382.24 108.084C384.093 108.084 385.154 109.017 385.154 110.628V110.705C385.154 111.97 383.812 112.136 380.399 112.469C376.512 112.827 373.022 114.131 373.022 118.516C373.022 122.402 375.797 124.371 379.542 124.371ZM381.102 120.612C379.427 120.612 378.225 119.832 378.225 118.337C378.225 116.803 379.491 116.048 381.409 115.78C382.598 115.614 384.541 115.332 385.193 114.898V116.982C385.193 119.04 383.493 120.612 381.102 120.612ZM405.27 104.364H401.576V99.6591H396.13V104.364H393.445V108.455H396.13V118.682C396.104 122.53 398.725 124.435 402.675 124.268C404.081 124.217 405.078 123.936 405.628 123.757L404.772 119.705C404.503 119.756 403.928 119.884 403.417 119.884C402.33 119.884 401.576 119.474 401.576 117.966V108.455H405.27V104.364ZM408.818 124H414.264V104.364H408.818V124ZM411.554 101.832C413.177 101.832 414.507 100.592 414.507 99.071C414.507 97.5625 413.177 96.3224 411.554 96.3224C409.943 96.3224 408.613 97.5625 408.613 99.071C408.613 100.592 409.943 101.832 411.554 101.832ZM427.499 124.384C433.456 124.384 437.163 120.305 437.163 114.259C437.163 108.173 433.456 104.108 427.499 104.108C421.541 104.108 417.834 108.173 417.834 114.259C417.834 120.305 421.541 124.384 427.499 124.384ZM427.524 120.165C424.776 120.165 423.369 117.646 423.369 114.22C423.369 110.794 424.776 108.263 427.524 108.263C430.222 108.263 431.628 110.794 431.628 114.22C431.628 117.646 430.222 120.165 427.524 120.165ZM446.151 112.648C446.163 110.116 447.672 108.634 449.871 108.634C452.057 108.634 453.374 110.065 453.361 112.469V124H458.807V111.497C458.807 106.92 456.122 104.108 452.031 104.108C449.116 104.108 447.007 105.54 446.125 107.828H445.895V104.364H440.705V124H446.151V112.648Z" fill="#05345C"/>
</svg>
